<svg width="686.241" height="687.52" viewBox="0 0 181.568 181.906" xmlns="http://www.w3.org/2000/svg"><path d="M22.002 29.977h1.014c.239.367.693.261.835.67-.111.209-.045.209-.23.113-.278.73-.252 1.729 0 2.47-.256-.092-.319.197-.345.56.082.364.215.629.517.562.202.483.587 1.146.92 1.009.062.497-.098.557-.116.9-.272.045-.336-.318-.516-.452.05.723.02 1.781-.632 1.682.018.223-.077.223-.114.34.127.257.223-.04.401 0l-.029.204c.104-.156.21-.279.345-.3l-.086-.13c.139-.29.302-.53.459-.787.118.483.435.571.574 1.012-.181.13-.2.582-.344.783-.26-.278-.576.293-.632.787.038.152.123.208.23.226.015.402-.227.303-.23.67.128.236.382.088.46-.11-.017.293.021.48.172.449.058 0 .068-.092.115-.113l.085.056.087-.056v.448c.13.494.464.589.517 1.234.264-.007.343-.377.574-.448-.004.194.044.29.115.336.031-.575.495-.304.631-.674.028.134.062.257.116.338.023-.303.272-.462.402-.225l-.03.113.345-.17-.086-.056c.01-.166-.02-.413.058-.448.127.162-.073.275.057.338.143-.36.281-.14.46 0 .038-.409.333-.183.401 0 .016.378-.313.385-.114.784h.057l-.029.208.086.13c-.05.237-.175.332-.172.674.42.113.85.208 1.149.561l-.029.205c.095-.127.191-.142.287-.149l-.03-.169c.161.13.343.014.46-.226.38.194.67.565.69 1.46-.25-.003-.517-.038-.69.11-.02.554-.356.49-.4.999l.173.12c.136-.357.324.109.458.116.127-.261.05-.3.114-.561.24-.095.272.219.46.226a.31.31 0 0 1 .115-.226l.028.17c.016-.152.038-.269.088-.371.112-.039.266.035.314.257l.029-.169c.324.184.202.928.115 1.46.005.262.185.18.222.382l.323-.438c-.085.145-.18.272-.206.501-.036.046-.088.042-.13.042-.013-.014-.025-.024-.036-.038v.113c-.286.091-.189.821-.633.56-.018.265-.09.42-.057.787l-.075.145-.04.19c-.124-.317-.398-.345-.574-.56 0-.114.046-.135.057-.223.076-.039.188-.088.345-.226-.008-.772-.388-1.023-.345-1.57h-.115l-.085-.056-.087.056c-.05-.165-.086-.356-.23-.338l.03-.17c-.102.135-.221.096-.308-.06a.973.973 0 0 1-.01-.162l-.057-.056c-.108-.201-.265-.304-.344-.561h.058v-.113c-.024-.272.104-.243.056-.561h-.229l-.086-.056.028.169c-.156.07-.455-.145-.516.113-.077-.074-.107-.24-.115-.452l.086.057c-.028-.148-.035-.3-.057-.448l-.029.169H28.1l-.086-.056-.086.056c-.028-.41-.523.078-.422.11-.172-.022-.245-.533-.382-.11l-.029-.17v.438c.005.078.008.159 0 .236l.03-.169c.227-.063.598.145.803-.222l.086.053.086.056h.172c.008.279.01.544-.057.674-.084-.148-.454-.23-.46.113.056.416.247.568.517.56-.015-.652.21-.137.287-.56.106.018.035.381.115.448h.058l-.03.208c.181-.141.438.088.432.494-.02.074-.057.201-.105.363l.104-.053c-.002.34-.033.738.173.67-.029.396-.086.731-.057 1.235.308.318.31-.067.689.113.04.346.04.216 0 .561h-.518c-.088.163-.05.575-.056.896.272-.345.65-.151.976 0 .013-.084.001-.218.057-.222l.029.166.086-.053c.19.508.498-.067.46-.674.034.007.067.014.056.113.004.116.075.088.059-.113l.074-.148.04-.19c.336.278.781.345.92 1.012.182.095.217-.099.286-.226-.025.773-.314 1.03-.573 1.348-.02.151-.083.211-.058.448.173.159.307-.05.516-.113.037.624.31.497.517.56-.003.526.266 1.102.517 1.461l-.029.166.087.057c.038.303-.119.218-.173.335l-.029-.166c-.005.187.013.384-.029.56l.058-.056c.076 0 .053.198.115.226l-.029.166.087-.056c-.004.197.012.349.056.448.139-.142.25-.336.403-.448.245.194.199.96.345 1.347-.153.039-.194.297-.23.561.087.505.446.815.287 1.457-.274-.113-.476-.346-.747-.222-.043-.265-.113-.776 0-1.01-.265.146-.158-.44-.287-.56-.033.363-.12.208-.172.335v.339l-.087-.057c.043.233.016.477 0 .72v.402l.087-.056c-.032.772.65.151.632.896-.103.063-.239.06-.287.226v.448c.45.278.687.973 1.148 1.234-.115.148-.25.261-.287.561-.31-.243-.473.103-.574.561-.013-.127-.064-.176-.115-.226l-.087-.053-.085.053c.117-.903-.147-1.058-.46-1.121-.053-.625-.038-.23.115-.449.016-.254-.014-.42-.115-.448-.086.131-.068.466-.23.448-.132-.229-.229-.525-.402-.673-.102.25-.396.123-.459.448-.039.412.124.43.114.786-.199-.014-.083.586-.23.674.093.23.289.261.518.222.03.925-.595.561-.574 1.461-.028.353.081.437.115.674-.267-.117-.497.204-.632 0l.028-.205-.085-.134c.197-.716.335-2.155 0-2.353.124-.166.308-.222.401-.451-.21-.484-.532-.837-.861-.784v-.338l.086-.057-.029-.166c.074-.007.08-.144.173-.112.018-.262-.01-.43-.058-.561-.101.098-.177.25-.23.448l-.057-.057-.058-.056h-.23c.024.14.075.23.173.226l.029.169.086.053c-.03.391-.375.166-.574.226l.028-.205c-.133.035-.266.212-.402.113l.029.204c-.343-.074-.602.022-.747.336.066-.47-.244-.367-.344-.784.338-.091.56-.402.69-.9.231.184.393-.338.228-.56-.226-.145-.139.328-.287.335-.032-.346-.306-.219-.23-.783l.087-.057-.029-.169c.288.004.491-.162.46-.783-.139-.046-.126.205-.288.113-.14-.152.105-.339-.057-.452h-.115l.029-.204-.23.187.086.13c-.003.145-.074.155-.057.339-.161-.138-.396-.127-.632-.113 0 .113-.047.13-.057.222.071.385.372.321.517.561.013.367-.33-.077-.23.674.1.063.338-.134.345.113-.322.268-.547.727-.804 1.122-.237-.399-.244-1.242-.631-1.348.084-.021.052-.268.057-.448-.229.11-.178-.325-.23-.56l.086-.057-.086-.057c.145-.314.13-.942.23-1.347l.028.169-.148-1.065c-.14-.015-.234.06-.283.225l-.057-.056-.057-.057c-.134.036-.22-.017-.288-.112a1.71 1.71 0 0 0-.057 1.009c-.143-.015-.178.176-.287.225l-.029-.169-.028.17c-.112-.047-.046-.435-.23-.34a4.307 4.307 0 0 0-.057 1.348c.142-.014.278-.02.287.226-.117.19-.166.748 0 .896.166 0 .135-.635.057-.783.278.053.253-.554.516-.226-.099.963.22 1.443 0 2.018.109.201.38.085.576.113.1.547-.047.377-.116.787l-.086-.057-.029.17c-.094-.198-.197.088-.23.335h.23l.086.056.03-.17c.177.336.249-.169.402-.222.088.35.195.664.344.897-.068.317-.268.377-.403.56-.052.477.138.48.345.448-.136.456.19.389.23.787-.006-.063-.106.25-.115.335-.087.843.153 1.224.344 1.235v.674c.101.102.106.395.173.56l-.087.057-.028.17c-.117-.198-.113.084-.23-.113v-.561c-.177-.29-.297-.692-.46-1.01-.057.371-.306.371-.573.336-.058.353-.262.836-.173 1.122.12-.064.186-.237.287-.335.169.592.201.853.287 1.682h.173c-.033.572.087 1.443-.114 1.683l-.087-.056-.087.056c.285-1.22-.627-1.496-.918-1.235-.152 1.087.488 1.486.804 2.022-.002 1.005-.616.815-.804 1.457l-.087-.057c.024.152.034.3.029.448l.058-.053c.1.55.412.688.517 1.232.614.116 1.387.07 1.837-.448v-.113l.105.056.067-.166c.12.29.367.939.058 1.122.003-.194-.044-.29-.115-.338-.217.511-.797-.032-.92.448.066.324.248.416.461.451-.113.36-.162.794 0 1.122-.227-.07-.986-.702-.918.335.075.187.325.039.401.226.024.38-.172.335-.23.56.147.011.201.205.287.336-.101.028-.13.194-.114.448l-.086.056.028.17c-.29.14-.515.416-.516 1.122.056 0 .068.091.114.112.163-.194.5-.37.632 0-.002.484-.305.374-.23 1.01.182.282.396.497.46 1.008l.028.113a.335.335 0 0 1 .173.057l-.029-.17v-1.009c.139-.045.125.205.287.113.094-.37.058-.857-.057-1.122.155-.257.204-.384.46-.225.05.723.301 1.054.573 1.347-.13-1.376.217-1.824.23-2.917.368-.102.66-.356.804-.9-.008.201.057.265.173.226 0-.483.118-.74.172-1.122.063.226.308-.137.516 0 .102.187-.05.378 0 .787-.214.067-.376.236-.516.448.055 1.866-.772 2.007-.575 4.152.22.314.508.48.345 1.009.235.127.876.367.804-.448h-.058l-.028-.17-.087-.056c.033-.162.09-.275.173-.335.147.374.248.173.402.448-.013-.36.101-.476.057-.9.202-.014.257-.32.46-.335-.057.632.042.963.287 1.01.023.271-.105.243-.058.56.164.244.367.406.517.674-.22.646-.613.138-.919 0 0 .148-.1.102-.115.226-.006.32.031.734-.057.896-.241.293-.241-.18-.459-.222-.045.247-.034.606-.173.67-.054-.568-.606-.759-.861-.561-.005.572.282.572.402.9-.005.684.148 1.054.287 1.457.013-.089.048-.131.115-.11.089-.49-.254-.624 0-.786.06.254.36.042.517.112.157.216.1.85.287 1.01.112-.156.303-.16.344-.449.218.656.686-.123 1.034.113l.029.166.086-.056c.34.973-.556.96-.345 1.682l-.086.057.029.17c-.007.214-.193-.131-.345 0-.164.539-.244 1.24-.574 1.456v1.013c.121-.103.17-.343.345-.34.185.426.486.621.689 1.012l-.087.056-.028.168c-.15.785-.703.905-.804 0-.184.015-.253.255-.23.673.417.046.39.959.632 1.347.07-.162.197-.213.344-.225l-.028.169.086.056c-.185.752.111 1.288.46 1.346v.561c-.171.19-.335.394-.575.448-.015-.328.13-.344.115-.673-.052-.197-.128-.347-.23-.448-.14.438-.502.439-.517 1.121l-.105-.055-.067.168c-.125-.182-.378-.115-.498-.305l-.278.36c.022-.14.024-.28.043-.362.098-.055.198-.098.302-.086l-.086-.055c.04-.372.438-.042.46-.45-.076 0-.053-.196-.115-.224h-.058c-.23.343-.473-.032-.746.225-.033-.363.017-.565.114-.674-.172.113-.102-.25-.114-.449-.146-.15-.456-.372-.632-.112-.074-.47-.3-.333-.46-.56-.178-.255-.263-.74-.459-.898.012.01-.155.246-.23.224-.164-.046-.244-.476-.402-.336-.297.495-1.116.21-1.263.673-.028.498.016.68.115.673-.1.102-.2.208-.172.56.184.464.308 1.045.631 1.235-.005-.195.013-.35.058-.448l.105.055.067-.168c.183.4-.146 1.232.057 1.683-.186.047-.182.466-.344.56-.008-.208-.038-.374-.115-.448-.063.61.137.706.172 1.123-.31.142-.387.738-.631 1.01.01.316-.05.769.114.785.204-.038.142-.31.345-.113l-.028.206.086.131c-.028.353.082.439.115.673-.245.307-.388.815-.632 1.122-.096-.177.075-.515-.172-.56-.132.275-.293 1.14-.116 1.345.12-.244.165.057.345 0l-.029.206.086.13c.154.588.156.802.288 1.46.35.123.637-.35.804-.225h.057a1.026 1.026 0 0 0-.074-.193.923.923 0 0 1 .017-.256h-.058c-.062-.496.098-.557.115-.897-.054-.23-.117-.444-.172-.674h.057v-.112c.096-.343.585-.175.976-.224l-.028.168.102-.158c.011-.073.019-.155.043-.21a.666.666 0 0 0 .142-.08l-.086-.057c.032-.228.173-.22.057-.448-.222-.06-.236.286-.402.336-.04-.408-.3-.387-.46-.561l.087-.056-.029-.168c.06-.257.41.053.46-.224-.113-.679-.55-.72-.574-1.571.229-.074.393-.278.574-.449.596-.022.418 1.869 1.034 1.459l-.03.168.087.056c.008.277.008.54-.057.673-.144.206-.473.05-.46.561.32-.063.225.682.402.898h.517l.029.168.085-.056c.111 1.058.329 2.24.92 2.02l.085.056.086-.057c.004.069.01.133.058.113.106-.13.04-.596.287-.448-.092.645.365.741.345 1.57-.156-.12-.27-.072-.345.224-.002.49.16.663.173 1.122-.187.066-.268-.076-.402-.112-.076.348.015.32 0 .785-.05.353-.316.28-.345.673.057.315.153-.162.23.113v.561l-.105-.057-.068.169c-.151-.214-.475-.015-.631.112.065.85.44.974.919 1.234.108-.388.443-.33.631-.56.02.26.037.525.23.448v-.56c-.254-.066-.55-.047-.747-.225.19-.042.117-.597.345-.56.287.256.855.194 1.034.335-.04 1.172.461 1.192.287 2.357-.136-.002-.17.193-.345.112-.08-.143-.025-.55-.172-.561-.015.157-.126.128-.172.224l-.03-.168c-.034.135-.044.263-.114.337l.086.056v1.122c-.301-.15-.435.522-.574 1.01-.163-.392-.285-.863-.517-1.122-.077.494.251.772.058 1.121-.218-.173-.553-.116-.69-.449-.037.413-.341.306-.516.45l.028-.169-.028-.168v-.561c-.26.06-.23-.45-.402-.56-.363-.081-.835.121-1.034 0l.03-.113c-.103.13-.233.15-.346.056l.029.168h-.288c-.031-.461-.214-.629-.516-.561l-.058-.056-.057.225.057.055c.444.366.287 1.085.115 1.796.05.651.68.165.747.785l-.029.168.086.056c-.208.192-.523.174-.46.898.126.072.183-.318.173.112-.092.231-.376.088-.287.673a.891.891 0 0 0 .92-.112c-.067.353.09.272.114.449-.144-.02-.18.172-.23.337l-.058-.056-.057-.057c-.102.026-.288-.113-.23.224.078-.035.11-.159.23-.111l.029.168.086-.057c.152.362.377-.078.287-.56.502-.427.82-.536 1.551-.449v-.112l.086.055.086-.055c.186.426.737.258.804-.224.06.293.233.367.46.336-.116.413-.022.8.044 1.162l.185-.04h-.058c-.028-.464.33-.608.402-.224.242-.527.697.038.977-.337-.07.493-.193.839.057 1.122-.182.512-.586-.405-.861.337-.028.352.155.296.172.56-.306.006-.512-.011-.631-.112-.179.519-.753.318-.862.674-.028.353.082.438.115.673-.205.01-.332.174-.517.224-.103-.508-.487-.47-.746-.673.005.348-.181.32-.115.786.2-.091.22.166.402.112v.672c.37.453.712-.08 1.148-.111.033.393-.27.369-.115.673.08.005.126-.053.173-.112-.018.26.009.43.057.56l-.086.057-.086.056c-.148.154-.013.687 0 .897-.204-.06-.296.095-.345.337.276.756.21 2.696.92 2.244.14.418.074.623.057 1.234l-.086-.056c.05.115.097.26.114.449l.086-.056c-.006.461.268.373.288.785l-.03.112.03.113c-.313.23.119.763.114 1.121.045.025.113.004.115.113l-.086.056-.029.168c-.064.024-.09.125-.115.224-.041-.228-.243-.321-.344-.112.039.409.217.547.287.896l.2-.167c-.02.097-.038.205-.055.27-.072.11-.189.171-.242-.023l-.075.146c-.31.067-.398.568-.747.562-.263.232-.592.338-.746.785-.121-.137-.167-.422-.345-.449-.084-.002-.182.473-.172 0-.199-.304.319-.561.057-1.01l.098-.079c-.04-.09-.065-.21-.088-.314l-.067.168c-.144-.092-.225-.307-.402-.336-.167.797-.788.704-1.321.786-.102.248-.226.455-.172 1.01-.135.035-.216.177-.402.112-.277.695-.25 1.443.115 1.907.248.074.355-.128.459-.337.331.534 1.046-.273 1.263.562-.21.262-.38.603-.573.897-.088-.606-.364.124-.518.112-.054-.212-.414-.83-.516-.224.08.218.297.167.402.336-.043.37-.388.735-.23 1.122l-.029.168.086-.055c.147.456-.027 1.1-.057 1.57.14.585.299 1.136.516 1.572-.06.002-.384-.17-.402.448.293.213.306.974.575 1.234.37-.012.732-.008.976.225l-.086.13.5-.029a.367.367 0 0 1 .132-.008l-.029-.206h.804c.003-.068.008-.132.057-.112v.112c.04-.235.092-.54.244-.562.131.1.288.297.245.618l.085-.056c0 .113.047.134.058.225l-.086.056.029.168c-.329.106-.577.37-.747.785v-.111c-.026.125-.018.323-.086.504l.086-.056c.28-.245.528-.45.747.112.188-.664.721.002 1.034.112v-.672c.271-.082.377.16.516.336l-.028.168.028.168c-.148.086-.2.359-.172.786-.495.147-.747.095-1.206.337-.1.373.029.498 0 1.01-.077.111-.113.303-.23.336l-.066-.168-.106.055c.004-.195-.013-.348-.058-.448-.162-.093-.148.158-.287.112l.03-.168-.087.056c-.169-.636.261-.753.23-1.458-.248-.316-.569.044-.69.336-.278-.415-.32-.004-.516-.449-.221.3-.455-.086-.574.45-.133.033-.065-.326-.173-.337l.029-.169c-.077-.005-.152-.004-.23-.037l.029.206a.69.69 0 0 1-.517.111c-.106.766-.838.309-.861 1.234.327.11.663.201.804.674-.33.38-.682 1.604-.403 2.468.182-.393.664-.199.863-.56 0-.063-.047-.128-.059 0-.073-.205-.033-.638.173-.786.234-.083.198.362.46.224-.06-.676.05-1.023.401-.898.008-.356.13-.493.115-.897-.158-.176-.495-.005-.574-.337.106-.315.218-.622.287-1.01.083.138.087.429.172.562.218.15.59-.502.574.224l-.086.13.03.206c-.074.006-.08.144-.173.113-.069.644.463.71.574.336l.03.057.027.055c.27.045.191.07.46.113l.067.168.106-.056c.034.232.089.425.286.336-.013-.474.09-.72.172-1.01.102.178.076.602.173.786.244.028.31-.293.574-.224.23.213-.057.77.172.897.166-.013.1-.478.288-.449.131.118.347.072.46.225.047.293-.174.615 0 .786.135.003.168-.194.343-.113l-.028.168.086.057c.014.16.095.189.115.336l-.086.056.028.168c-.148.39-.731-.748-1.09 0l-.03-.168c-.058.106-.15.287-.229.337l.086.056c.013.212-.064.248-.057.449-.154.077-.11-.232-.172-.337l.086-.13a3.418 3.418 0 0 1-.173-.15l.03.168c-.368.408.048 1.132.286 1.347-.233.031-.399.192-.632.224l.029-.169-.086-.055c.13-.242-.04-.397-.23-.337l.03-.205-.087-.132c.13-.202.136-.566.057-.898-.272.178-.352.229-.632 0 .066.653-.067.915-.401.786-.12-.029-.016-.493-.115-.561-.057.238-.362-.24-.46.112.007.137.018.266.115.225l-.029.205.086.131c-.12.364-.61.002-.516.786.543-.014.646.832 1.091 1.01l-.029.168.03.168h-.059c-.048.357.05.426.115.56-.585.128-.984.621-1.435 1.01.014.161.094.19.114.337l-.086.057.03.168c-.216.215-.466.362-.633.673-.014.366.069.54.23.56l-.029.113.144-.112h-.057c.353-.554 1.112-1.014 1.55-.449l-.028.168c.14-.179.3-.034.45-.066.033.109.032.26.038.403l.057.056c.109-.025.127.127.23.112-.018.262-.123.484.057.561.204-.226.203-.152.46-.224.1.403.243.72.286 1.234-.341.465-.664-.023-.975.224-.056-.452-.31-.516-.46-.785-.098.144-.226.233-.23.561-.368-.036-.615.254-.86-.112l-.068-.169c-.103.377-.299.815-.537.602-.017-.062-.035-.17-.057-.265l-.131.155c-.047.078-.092.16-.156.182l.029.168c-.104.171-.176.405-.402.337-.098-.07-.094-.339-.172-.45-.085.209-.298.169-.287.562.136.431.173.764.287 1.01.007-.09.19-.34.172-.112-.2.363.06.775.115 1.01.027.353-.177.254-.115.672h.288l-.029.206.086.131c-.104.348-.176.06-.403.112.013.213-.064.248-.057.45.094.3.244.496.344.784h.059l-.03.206.087.131c-.316.389-.595 1.465-.116 1.907.079-.407.29-.553.46-.785-.075.495.004.46.115.785-.179.176-.377.312-.46.673.093.345.305.452.345.898l-.029.169c.08-.132.172-.14.265-.161l-.179.109c-.047.38.007.52-.057 1.006.108.126.277.132.23.56l-.086.056c.148.103.156.415.143.674l.058-.168c.073.006.079.143.172.112-.153.225-.255.549-.345.897l-.105-.056-.067.169c-.176.081-.169-.195-.344-.113-.225.46-.567.69-.632 1.46.285.077.216.847.575.784.017.447.004.83-.115 1.01-.192-.002-.375-.174-.575 0-.157-.388-.162-.375-.173-1.01-.106-.09-.231-.145-.286-.336.012.212-.065.247-.058.449.344.234.274 1.718.69 1.458-.024.794.336.838.517 1.235-.106.667.221.913.114 1.233-.316-.432-.604-.06-.804.337-.018.26.01.43.057.56-.162.432-.597.331-.516 1.235.18.133.433.126.574.337l-.086.056.028.168c-.047.282-.075.601-.287.56l-.086-.055c-.067.137-.154.223-.23.337l.087.055c-.094.342-.254.554-.23 1.123.765-.187 1.298.894 1.091 1.907.076-.034.108-.153.223-.114l.093-.728c-.02.295.063.744-.115.898l.087.056c-.15.458-.664.2-.747.786.035.267.25.184.172.673-.49-.08-.087.702-.115 1.458-.012.316-.28.377-.057.674.127-.089.144-.393.23-.561h.401l.029.168.086-.056c-.227.64-.422 1.344-.804 1.683-.136.726.226 1.028.058 1.908-.42.115-.642.617-.804 1.234.021.37.305.226.287.673.069.546-.228.376-.23.785.129.31.32.497.574.561l-.028.206c.037-.021.076-.03.114-.038l-.029-.168c.053-.196.108-.39.288-.336l-.03.168c.091-.133.14-.202.202-.281h-.058c.22-.319.046-.905.058-1.459-.11.049-.104.321-.287.225-.085-.357-.12-.815-.23-1.122.108-.09.21-.187.345-.224.095.15.019.635.114.785l.03.168c.038.005.076.02.114.038l-.029-.206c.181-.395.119-1.264.346-1.57l.085.056.029-.169c.195-.142.276-.506.517-.56.006.175-.008.388.115.336-.002-.264.098-.33.057-.674l.086.056.029-.168c.073.268.122.585.402.45l.029.167.114-.449-.086.056c.034-.232-.071-.737.058-.785.17.321.465-.256.46.45l-.087.13c.243.228.19.816.041 1.143l.103-.04c-.118.334-.19 1.056.057 1.234l-.028.113.028.112c-.186.532-.504.81-.861 1.01h-.123c.044.396-.064.676-.144.985l-.078.53.057.056c.411.109.655-.647 1.092-1.01l.066.168.106-.056v.449c.233.316.506-.087.804 0l-.029.168.086.056c-.048.58.112.755.23 1.01l.029.168.029.169c-.148.236-.34.384-.517.56l-.029-.168-.086.056v-.224c-.343-.146-.428.21-.632.336-.083-.137-.087-.428-.172-.56l-.029-.17-.086.057v-.112c-.119-.198-.05-.347-.114-.449-.03.166-.085.283-.115.45-.249 0-.322-.207-.46.111-.032-.2-.03-.466-.115-.56-.035.155-.22.016-.23.224v1.01l-.085.056.028.168c-.183.165-.166-1.018-.574-.785.016-.294-.021-.483-.172-.45-.025.252-.102.4-.23.45-.24-.207-.286-.789-.517-1.01-.474.007-.444 1-.976.897-.15.867-.592 1.163-1.149 1.235l-.058-.057c-.004.15-.002.3-.028.45l.086-.056c.197.692.621-.519.862-.113v.898c.487-.18.175 1.59.689 1.009-.02.41-.245.42-.287.786.116.445.406.552.516 1.01.202-.35.282.493.632.224.008.132-.01.318.058.336.88-.314.695 1.978 1.32 1.795v-.448c.475-.61.67.113 1.206.224-.041.343.1.33.058.673-.188.198-.493-.193-.632-.449-.58.252-.436 1.408-.517 2.469-.142-.014-.277-.017-.344.112l-.029-.168-.029.168c-.137.141-.203.426-.402.449a1.133 1.133 0 0 0-.287-.561c.12-.066.186-.236.287-.337l.029.169.029-.337-.058.056c-.073-.192-.118-.44-.287-.448-.23.207-.226.44-.172 1.01-.107.089-.21.186-.344.224-.031-.315-.085-.584-.116-.898-.254-.267-.79-.627-.861.224.056.525.147.935.172 1.235-.107.162-.298.165-.344.449-.013 1.237-.716 1.404-.861 2.244-.05.291.104.204.113.538-.012-.053-.097.627-.113.696-.083.327-.282.364-.46.336-.06-.299-.426-.581-.517-.449-.075 1.083.092 1.691.345 2.132-.09.274-.103.697-.23.898-.511.188-.86-.374-1.092.561.008.323-.03.734.059.897-.188.503-.56.694-.977.45-.064-.398-.112-.829-.287-1.01-.523-.014-.856.347-.92 1.234a1.893 1.893 0 0 1-.644.816h-5.609V29.977h3.247c.042.381.028.868.25.896.167-.582.111.01.403 0a2.131 2.131 0 0 1 .046-.896" style="fill:#040606;fill-opacity:1;fill-rule:nonzero;stroke:none;stroke-width:.0352778" transform="translate(-18.056 -29.945)"/><path d="M18.12 207.906v-1.015c.367-.238.261-.692.67-.835.209.112.209.046.113.23.73.278 1.73.252 2.47 0-.092.257.197.32.56.345.364-.082.629-.214.562-.517.483-.201 1.146-.587 1.009-.92.497-.061.557.098.9.116.045.272-.318.336-.452.517.723-.051 1.781-.02 1.682.632.223-.018.223.076.34.114.257-.127-.04-.223 0-.402l.204.029c-.155-.103-.279-.21-.3-.344l-.13.086c-.29-.14-.53-.303-.787-.46.483-.118.571-.434 1.012-.574.13.182.582.2.783.344-.278.26.293.577.787.633.152-.038.208-.123.226-.23.402-.016.303.226.67.23.236-.128.088-.383-.11-.46.294.016.48-.022.449-.173 0-.057-.092-.068-.113-.114l.056-.086-.056-.087h.448c.494-.13.589-.464 1.235-.516-.008-.265-.378-.343-.448-.575.194.004.289-.044.335-.114-.575-.032-.304-.495-.674-.632a1.03 1.03 0 0 0 .339-.115c-.304-.024-.463-.273-.226-.402l.113.03-.17-.346-.056.087c-.166-.01-.413.02-.448-.059.162-.126.275.073.339-.057-.36-.142-.142-.28 0-.459-.41-.039-.184-.333 0-.402.377-.015.384.313.783.115v-.057l.208.028.13-.086c.237.05.332.175.674.173.113-.421.208-.85.561-1.15l.205.03c-.127-.096-.141-.192-.148-.287l-.17.029c.13-.16.014-.343-.226-.46.194-.38.565-.669 1.46-.69-.003.25-.038.517.11.69.554.02.49.356.999.4l.12-.172c-.357-.136.109-.324.116-.458-.261-.127-.3-.05-.56-.115-.096-.24.218-.271.225-.46a.31.31 0 0 1-.226-.114l.17-.029a1.083 1.083 0 0 1-.371-.087c-.039-.113.035-.266.258-.315l-.17-.028c.184-.325.928-.202 1.46-.115.262-.005.18-.186.382-.223l-.438-.323c.145.085.272.18.501.207.046.035.043.087.043.13-.015.013-.025.025-.04.036h.114c.091.286.822.188.56.632.265.018.42.091.787.058l.145.074.19.041c-.317.123-.345.398-.56.574-.113 0-.135-.046-.223-.058-.039-.075-.088-.188-.226-.345-.772.008-1.023.389-1.57.345v.115l-.056.086.057.087c-.166.05-.357.086-.34.23l-.168-.03c.134.102.095.22-.06.308a.973.973 0 0 1-.163.009l-.056.057c-.201.108-.304.266-.561.344v-.057h-.113c-.272.024-.243-.104-.56-.057v.23l-.057.085.169-.028c.07.156-.145.456.113.516-.074.078-.24.108-.452.115l.057-.086c-.148.028-.3.036-.448.057l.17.03v.402l-.057.086.056.085c-.41.029.078.524.11.423-.022.172-.533.244-.11.381l-.17.03h.438c.078-.006.159-.009.237 0l-.17-.03c-.063-.227.145-.599-.222-.804l.053-.085.056-.086v-.173c.28-.008.544-.009.674.058-.148.084-.23.454.113.46.416-.056.568-.247.561-.518-.653.016-.138-.21-.56-.287.017-.106.38-.035.447-.115v-.057l.208.029c-.14-.181.088-.437.494-.431.074.02.201.056.363.105l-.052-.105c.338.002.737.034.67-.173.395.03.73.086 1.235.058.317-.308-.067-.31.112-.69.346-.04.216-.04.561 0v.518c.163.088.575.05.896.057-.345-.272-.151-.651 0-.977-.084-.012-.218 0-.222-.057l.166-.028-.053-.087c.508-.189-.067-.498-.674-.46.007-.034.014-.067.113-.056.117-.004.088-.074-.113-.058l-.148-.075-.19-.04c.278-.336.345-.78 1.012-.919.095-.182-.099-.217-.226-.287.773.026 1.03.315 1.348.574.152.019.212.082.448.058.159-.174-.05-.307-.113-.517.624-.037.497-.31.56-.516.527.003 1.102-.266 1.461-.517l.166.028.057-.086c.303-.039.218.119.335.172l-.166.03c.187.004.385-.014.56.028l-.055-.058c0-.076.197-.052.225-.114l.166.028-.056-.086c.197.004.349-.013.448-.057-.141-.138-.335-.25-.448-.402.194-.246.96-.2 1.347-.345.04.153.297.194.561.23.505-.088.815-.446 1.457-.287-.113.273-.346.475-.222.746-.265.044-.776.114-1.009 0 .145.266-.441.158-.561.287.363.034.208.121.335.173h.339l-.057.086c.233-.043.477-.015.72 0h.402l-.056-.086c.772.031.151-.651.896-.632.063.102.06.238.226.287h.448c.278-.45.973-.687 1.234-1.148.149.114.261.249.561.287-.243.31.103.473.561.574-.127.012-.176.064-.226.115l-.052.087.052.085c-.903-.118-1.058.146-1.121.46-.625.053-.23.038-.448-.115-.254-.016-.42.014-.448.115.13.085.465.067.448.229-.23.133-.526.23-.674.402.25.103.123.396.448.46.413.038.43-.124.786-.115-.014.2.586.083.674.23.23-.093.261-.288.223-.517.924-.031.56.595 1.46.574.353.027.437-.082.674-.115-.117.266.204.497 0 .632l-.205-.028-.134.085c-.716-.198-2.155-.335-2.353 0-.166-.125-.222-.308-.451-.402-.484.21-.836.532-.784.862h-.338l-.057-.086-.165.028c-.008-.073-.145-.079-.113-.172-.261-.018-.43.01-.561.058.098.1.25.177.448.23l-.057.057-.056.057v.23c.141-.024.23-.074.226-.173l.169-.028.053-.086c.391.029.166.374.226.574l-.205-.029c.035.134.212.266.113.402l.205-.028c-.075.343.02.601.335.746-.47-.066-.367.245-.783.344-.092-.337-.403-.56-.9-.689.183-.232-.339-.394-.561-.229-.145.226.328.14.335.287-.346.033-.219.307-.783.23l-.056-.087-.17.03c.004-.289-.162-.492-.783-.46-.046.138.205.125.113.287-.152.14-.339-.104-.452.057v.115l-.204-.029.187.23.13-.086c.145.003.156.074.339.058-.138.16-.127.396-.113.631.113 0 .13.047.222.058.385-.072.321-.372.561-.518.367-.012-.077.33.674.23.064-.1-.134-.337.113-.344.268.322.727.547 1.122.803-.399.237-1.242.245-1.348.632-.021-.085-.268-.053-.448-.057.11.228-.324.178-.56.23l-.057-.086-.057.085c-.314-.144-.942-.13-1.347-.23l.169-.027-1.065.147c-.014.14.06.235.225.283l-.056.057-.056.058c.035.134-.018.22-.113.287.268.105.649.15 1.009.057-.014.144.176.178.225.288l-.169.028.17.029c-.046.111-.435.046-.34.23.452.084.897.115 1.348.057-.014-.143-.02-.279.226-.287.19.117.748.166.896 0 0-.167-.635-.136-.783-.057.053-.279-.554-.254-.226-.517.963.1 1.443-.22 2.018 0 .201-.108.085-.38.113-.575.547-.1.377.046.787.115l-.057.086.17.029c-.198.095.088.198.335.23v-.23l.056-.086-.17-.029c.336-.178-.168-.25-.221-.402.349-.089.663-.195.896-.344.317.068.377.267.56.402.477.053.48-.138.449-.345.455.137.388-.19.786-.23-.063.007.25.107.335.115.844.087 1.225-.153 1.235-.344h.674c.102-.1.395-.106.56-.172l.057.086.17.028c-.198.117.084.113-.113.23h-.561c-.29.178-.692.298-1.01.46.371.057.371.307.336.574.353.057.836.262 1.122.172-.064-.119-.237-.186-.335-.287.592-.168.853-.2 1.682-.287v-.172c.572.032 1.443-.088 1.683.114l-.056.087.056.086c-1.22-.284-1.496.628-1.235.918 1.087.152 1.486-.487 2.022-.804 1.005.002.815.616 1.457.804l-.057.087c.152-.023.3-.034.448-.028l-.052-.059c.55-.1.687-.411 1.23-.516.117-.614.071-1.387-.447-1.837h-.113l.056-.106-.166-.067c.29-.12.939-.367 1.122-.058-.194-.003-.289.045-.338.115.511.218-.032.798.448.92.324-.066.416-.247.451-.46.36.112.794.162 1.122 0-.07.226-.702.985.335.918.187-.076.039-.325.226-.402.381-.024.335.173.56.23.011-.147.205-.2.336-.286.028.1.194.13.448.114l.056.086.17-.029c.14.291.416.515 1.122.517 0-.057.091-.068.113-.114-.194-.163-.37-.5 0-.632.483.002.373.305 1.008.229.283-.181.498-.395 1.01-.459l.112-.029a.335.335 0 0 1 .057-.172l-.17.028h-1.009c-.045-.138.205-.124.113-.286-.37-.095-.857-.059-1.121.057-.258-.156-.385-.204-.226-.46.723-.05 1.055-.302 1.347-.573-1.375.13-1.823-.217-2.917-.23-.102-.368-.356-.66-.9-.804.201.008.265-.057.226-.173-.483 0-.74-.119-1.122-.172.226-.064-.137-.308 0-.517.187-.101.378.051.787 0 .067.214.236.376.448.517 1.866-.056 2.007.772 4.152.574.314-.219.48-.507 1.01-.344.126-.236.366-.876-.449-.804v.057l-.17.029-.056.086c-.162-.032-.275-.09-.335-.172.374-.148.173-.248.448-.403-.36.014-.476-.1-.9-.057-.013-.202-.32-.257-.335-.459.632.056.964-.042 1.01-.287.271-.024.243.105.56.057.244-.163.406-.367.674-.517.646.221.138.614 0 .92.148 0 .102.1.226.114.321.006.734-.03.896.058.293.24-.18.24-.222.458.247.045.607.034.67.173-.568.054-.758.606-.56.862.57.005.57-.282.899-.402.684.005 1.054-.149 1.457-.287-.089-.013-.13-.048-.11-.115-.49-.09-.624.254-.786 0 .254-.061.042-.361.112-.517.216-.158.85-.1 1.01-.287-.156-.113-.16-.303-.449-.345.657-.217-.123-.685.113-1.034l.166-.028-.056-.087c.973-.339.96.557 1.682.345l.057.087.17-.03c.214.008-.131.193 0 .346.539.164 1.241.243 1.456.574h1.013c-.103-.121-.343-.17-.339-.345.425-.185.62-.487 1.011-.69l.056.087.168.028c.785.15.905.703 0 .804.015.184.255.253.673.23.046-.416.959-.39 1.347-.631-.162-.07-.213-.198-.225-.345l.169.029.056-.086c.752.184 1.288-.112 1.346-.46h.561c.191.17.394.334.449.574-.329.016-.344-.13-.674-.114-.197.051-.347.128-.448.23.438.139.439.502 1.122.516l-.056.106.168.067c-.182.124-.115.377-.305.497l.36.278c-.14-.022-.28-.024-.361-.042-.056-.099-.1-.199-.087-.303l-.055.086c-.372-.039-.042-.438-.45-.46 0 .077-.196.054-.224.116v.058c.343.23-.031.472.225.746-.363.033-.564-.018-.673-.115.112.172-.25.102-.45.115-.15.145-.372.456-.112.631-.47.074-.333.3-.56.46-.255.178-.74.263-.898.46.01-.012.246.154.224.229-.046.164-.476.244-.336.402.495.298.21 1.117.673 1.263.498.028.68-.016.673-.114.102.1.208.199.56.172.464-.184 1.045-.308 1.235-.632-.195.005-.349-.012-.448-.057l.055-.106-.168-.067c.4-.182 1.232.146 1.683-.057.047.186.466.182.561.345-.209.008-.375.037-.449.115.61.062.706-.137 1.123-.173.142.31.738.388 1.01.632.317-.01.769.05.785-.115-.038-.203-.31-.141-.113-.344l.206.028.131-.086c.353.027.439-.082.673-.115.307.245.815.387 1.122.632-.177.096-.515-.075-.56.172.275.131 1.14.292 1.345.115-.244-.12.057-.164 0-.345l.206.03.13-.087c.589-.153.802-.156 1.46-.287.123-.35-.35-.637-.225-.804v-.058c-.073.02-.135.047-.193.075a.923.923 0 0 1-.256-.017v.057c-.496.063-.557-.097-.897-.115-.23.055-.444.118-.673.172v-.057h-.113c-.343-.095-.175-.584-.224-.976l.168.028-.158-.101c-.072-.012-.155-.02-.21-.044a.666.666 0 0 0-.08-.141l-.057.085c-.228-.031-.22-.173-.448-.057-.06.223.286.237.336.402-.408.04-.387.3-.561.46l-.056-.086-.168.028c-.257-.06.053-.41-.224-.46-.679.113-.72.55-1.57.575-.075-.23-.28-.393-.45-.574-.021-.596 1.869-.418 1.46-1.034l.167.029.057-.086c.276-.008.54-.008.672.057.206.144.05.473.562.46-.064-.32.68-.226.897-.403v-.516l.168-.03-.055-.085c1.057-.11 2.24-.328 2.018-.919l.057-.086-.057-.086c.069-.004.133-.009.113-.058-.13-.105-.596-.04-.448-.286.645.092.741-.366 1.57-.345-.12.155-.071.269.224.345.49.002.663-.16 1.122-.173.066.186-.076.267-.112.402.348.076.32-.016.785 0 .353.049.28.316.673.344.315-.056-.162-.153.113-.229h.561l-.056.105.168.067c-.214.152-.015.476.112.632.85-.065.974-.44 1.234-.92-.388-.107-.33-.443-.56-.631.26-.02.525-.037.448-.23h-.56c-.066.254-.047.551-.225.747-.042-.19-.597-.116-.56-.345.256-.286.194-.855.336-1.033 1.171.039 1.19-.462 2.356-.288-.002.136.193.17.112.345-.143.08-.55.025-.561.172.157.015.128.127.224.173l-.168.029c.135.035.263.044.337.114l.056-.086h1.122c-.15.302.522.435 1.01.574-.392.163-.863.286-1.122.517.494.078.772-.25 1.121-.057-.173.217-.116.553-.449.69.413.037.306.34.45.516l-.169-.029-.168.029h-.561c.06.26-.45.23-.56.402-.081.363.121.834 0 1.034l-.113-.03c.13.102.151.232.056.346l.168-.03v.288c-.461.032-.629.215-.561.516l-.056.058.225.057.056-.057c.365-.443 1.084-.286 1.795-.115.651-.05.165-.68.785-.746l.168.029.056-.087c.192.209.174.524.898.46.072-.125-.318-.183.112-.172.231.091.089.376.674.286a.891.891 0 0 0-.113-.919c.353.066.272-.09.449-.114-.019.143.172.18.337.23l-.056.057-.057.058c.026.101-.113.287.224.229-.034-.078-.159-.11-.111-.23l.168-.028-.057-.086c.362-.153-.078-.378-.56-.288-.427-.502-.536-.82-.449-1.55h-.112l.055-.086-.055-.086c.426-.187.258-.738-.224-.804.293-.06.367-.234.336-.46.413.116.8.022 1.163-.044l-.04-.186v.058c-.465.029-.609-.33-.225-.402-.527-.242.038-.697-.337-.976.493.07.839.193 1.122-.058.512.182-.405.587.337.862.352.027.296-.155.56-.172.006.306-.011.511-.112.63.52.18.318.754.674.862.353.028.438-.081.673-.114.01.205.174.332.224.516-.508.104-.47.487-.673.746.349-.005.32.182.786.116-.091-.2.166-.22.112-.403h.673c.453-.369-.081-.711-.112-1.147.393-.034.369.27.673.115.005-.08-.053-.127-.112-.173.26.018.43-.009.56-.058l.057.086.056.087c.154.147.687.013.898 0-.06.203.094.296.336.344.756-.276 2.696-.21 2.244-.919.418-.14.623-.075 1.234-.057l-.056.086a1.4 1.4 0 0 1 .449-.115l-.056-.086c.461.006.373-.268.785-.287l.113.029.112-.029c.23.313.763-.12 1.122-.115.025-.045.004-.113.112-.114l.056.086.168.028c.024.065.125.09.224.115-.227.042-.321.243-.112.344.41-.038.547-.217.896-.286l-.167-.201c.097.021.205.039.27.055.11.073.171.19-.023.243l.146.075c.067.31.568.398.562.747.233.263.338.592.785.746-.137.121-.422.167-.449.344-.002.084.473.182 0 .173-.303.198-.561-.32-1.01-.058l-.078-.098c-.09.04-.212.066-.315.089l.169.067c-.093.144-.308.225-.337.402.797.166.704.788.786 1.32.248.103.455.227 1.01.172.035.135.177.216.112.403.695.276 1.443.25 1.907-.115.074-.249-.128-.356-.337-.46.534-.33-.273-1.046.562-1.263.262.21.603.38.897.574-.606.088.124.363.112.517-.212.055-.83.415-.224.517.218-.08.167-.297.336-.403.37.044.735.389 1.122.23l.168.03-.055-.086c.456-.148 1.1.027 1.57.056.585-.14 1.136-.298 1.572-.516.002.06-.17.385.448.402.213-.293.974-.305 1.234-.574-.012-.37-.008-.732.225-.977l.13.086-.029-.499a.367.367 0 0 1-.008-.132l-.206.029v-.804c-.068-.003-.132-.008-.112-.058h.112c-.235-.04-.54-.091-.562-.244.1-.13.297-.288.618-.244l-.056-.086c.113 0 .134-.047.225-.058l.056.087.168-.029c.106.328.37.577.785.746h-.111c.126.027.323.018.504.086l-.056-.086c-.245-.28-.45-.527.113-.746-.665-.189.002-.721.111-1.034h-.672c-.082-.272.16-.378.336-.517l.168.028.168-.028c.086.148.359.2.786.173.147.495.096.747.337 1.205.373.1.498-.028 1.01 0 .111.077.303.113.336.23l-.168.067.056.105c-.196-.004-.349.013-.45.058-.092.162.16.148.113.287l-.168-.029.056.087c-.636.168-.753-.262-1.458-.23-.316.248.044.568.336.69-.415.278-.004.32-.449.515.3.222-.085.456.45.575.033.133-.326.064-.337.172l-.168-.028c-.005.076-.004.152-.038.23l.206-.03a.69.69 0 0 1 .112.517c.765.107.308.838 1.234.862.11-.327.2-.663.673-.804.381.33 1.604.682 2.468.402-.393-.182-.199-.664-.56-.862-.063 0-.128.047 0 .058-.205.074-.638.034-.786-.172-.083-.234.362-.198.224-.46-.676.059-1.023-.05-.898-.402-.356-.008-.492-.13-.897-.115-.176.159-.005.495-.337.574-.315-.106-.622-.217-1.01-.287.138-.083.429-.087.562-.172.15-.218-.502-.59.224-.574l.13.087.207-.03c.006.073.144.08.112.172.644.07.71-.462.336-.574l.057-.029.055-.028c.045-.269.07-.19.113-.46l.169-.066-.057-.106c.232-.035.425-.09.336-.287-.474.013-.72-.09-1.01-.172.178-.101.602-.076.786-.173.028-.243-.293-.309-.224-.574.213-.23.77.058.897-.171-.013-.167-.478-.1-.449-.288.118-.132.072-.347.225-.46.293-.048.615.174.786 0 .003-.135-.194-.169-.113-.344l.168.028.057-.086c.16-.013.189-.094.336-.114l.056.086.168-.029c.39.148-.748.732 0 1.09l-.168.03c.106.058.287.15.337.23l.056-.087c.212-.013.248.064.449.058.077.154-.232.11-.337.172l-.13-.087a3.418 3.418 0 0 1-.15.173l.168-.029c.409.367 1.132-.048 1.347-.287.031.233.192.4.224.632l-.169-.029-.055.086c-.242-.129-.397.04-.337.23l-.205-.029-.132.086c-.202-.129-.566-.135-.898-.057.178.273.229.352 0 .632.653-.066.915.068.786.402-.029.119-.493.015-.56.114.237.057-.241.362.111.46.137-.007.266-.017.225-.115l.205.03.131-.087c.364.12.002.61.786.516-.014-.542.832-.646 1.01-1.09l.168.028.168-.029v.058c.357.049.426-.05.561-.115.127.586.62.985 1.01 1.435.16-.013.189-.094.337-.114l.056.086.168-.029c.215.215.362.466.673.632.366.015.54-.068.56-.23l.113.029-.112-.144v.058c-.554-.353-1.014-1.113-.449-1.55l.168.028c-.179-.14-.034-.3-.066-.45.11-.034.26-.032.403-.038l.056-.057c-.025-.109.127-.127.113-.23.26.017.483.122.56-.058-.226-.203-.152-.202-.224-.459.403-.1.72-.244 1.234-.287.465.341-.023.665.224.976-.452.055-.516.31-.784.46.143.098.232.225.56.23-.036.367.254.614-.112.86l-.169.068c.377.102.815.298.603.536-.063.018-.17.035-.266.057l.155.132c.078.047.161.092.182.156l.168-.03c.171.105.405.176.337.402-.07.098-.339.095-.45.173.209.085.169.297.562.286.432-.135.764-.172 1.01-.286-.09-.007-.34-.19-.112-.173.363.2.775-.059 1.01-.115.353-.027.254.177.672.115v-.287l.206.029.131-.086c.348.104.06.176.112.402.213-.012.248.064.45.058.3-.095.496-.244.784-.345v-.058l.206.029.131-.086c.39.316 1.465.594 1.907.115-.407-.078-.553-.29-.785-.46.495.075.46-.003.785-.114.177.178.312.376.674.459.344-.092.451-.305.897-.344l.169.028c-.132-.079-.14-.172-.161-.264l.109.178c.38.047.52-.007 1.006.058.126-.108.132-.277.56-.23l.057.086c.102-.149.414-.157.673-.144l-.168-.058c.006-.073.143-.078.112-.171.225.152.549.254.897.344l-.056.106.169.067c.081.175-.194.168-.113.344.46.225.69.566 1.46.632.077-.285.848-.217.784-.575.447-.017.83-.004 1.01.115-.002.192-.173.375 0 .574-.388.158-.375.163-1.01.173-.09.107-.145.232-.336.287.212-.013.248.065.449.058.234-.344 1.718-.274 1.458-.69.794.024.839-.336 1.235-.517.668.106.913-.222 1.233-.114-.432.315-.06.603.337.803.26.019.431-.009.56-.057.432.162.331.597 1.235.517.133-.18.127-.433.337-.574l.056.086.168-.029c.282.047.601.075.561.288l-.056.085c.137.068.223.154.337.23l.056-.086c.341.094.553.253 1.122.23-.187-.766.894-1.298 1.907-1.091-.034-.076-.153-.109-.114-.223l-.728-.093c.295.02.744-.063.898.115l.056-.087c.458.149.2.664.786.746.267-.034.184-.25.673-.171-.08.49.702.086 1.459.114.315.012.376.28.673.058-.089-.127-.393-.144-.561-.23v-.402l.168-.028-.056-.087c.64.228 1.344.423 1.683.805.726.135 1.028-.226 1.908-.058.115.42.617.641 1.234.804.37-.022.226-.306.673-.287.546-.07.376.228.785.23.31-.129.497-.32.561-.574l.206.028c-.021-.038-.03-.077-.038-.115l-.168.03c-.196-.054-.39-.108-.336-.288l.168.029a4.604 4.604 0 0 1-.28-.201v.057c-.32-.22-.906-.045-1.46-.057.049.109.321.104.225.286-.357.085-.815.12-1.122.23-.09-.107-.187-.21-.224-.344.15-.096.636-.02.785-.115l.168-.029a.439.439 0 0 1 .038-.115l-.206.029c-.395-.181-1.264-.118-1.57-.345l.056-.085-.169-.03c-.142-.194-.506-.276-.56-.516.175-.006.389.008.336-.116-.264.002-.33-.098-.673-.057l.055-.086-.168-.028c.268-.074.586-.122.45-.402l.167-.03-.449-.113.056.085c-.232-.034-.737.072-.785-.058.321-.17-.256-.464.45-.459l.13.086c.228-.242.816-.19 1.143-.04l-.04-.103c.335.117 1.056.189 1.234-.058l.113.029.112-.029c.532.187.81.504 1.01.862v.122c.396-.043.676.064.985.145l.53.077.056-.057c.11-.41-.647-.654-1.01-1.091l.168-.067-.056-.106h.449c.316-.233-.087-.506 0-.804l.168.03.056-.087c.58.048.755-.112 1.01-.23l.168-.028.169-.03c.236.148.384.34.56.517l-.168.03.056.086h-.224c-.146.342.211.427.336.631-.137.083-.428.088-.56.172l-.17.03.057.086h-.112c-.198.118-.347.05-.449.114.166.03.283.085.45.115 0 .248-.207.322.111.459-.2.032-.466.03-.56.115.155.035.016.221.224.23h1.01l.056.086.168-.029c.165.183-1.018.167-.785.574-.294-.016-.483.022-.45.172.252.026.4.102.45.23-.206.24-.789.286-1.01.518.008.473 1 .444.897.975.867.15 1.163.592 1.235 1.15l-.057.057c.15.004.3.002.45.029l-.056-.087c.692-.196-.519-.62-.113-.861h.898c-.18-.487 1.59-.175 1.009-.69.41.02.42.246.786.288.445-.117.552-.406 1.01-.517-.35-.201.493-.281.224-.632.132-.008.318.01.336-.057-.314-.88 1.978-.695 1.795-1.321h-.448c-.61-.475.113-.67.224-1.206.343.042.33-.099.673-.057.198.188-.193.492-.449.631.252.58 1.408.436 2.47.517-.015.142-.018.277.111.345l-.168.028.168.03c.141.137.426.202.449.401-.27.053-.42.168-.56.287-.067-.12-.237-.186-.338-.287l.169-.028-.337-.03.056.058c-.192.074-.44.119-.448.287.207.23.44.226 1.01.173.089.107.186.21.224.344-.315.031-.584.085-.898.115-.267.255-.627.79.224.862.525-.056.935-.147 1.235-.173.163.108.165.299.449.345 1.237.012 1.404.716 2.244.86.291.051.204-.103.538-.113-.053.012.627.097.696.114.327.083.364.282.337.459-.3.06-.582.426-.45.517 1.084.076 1.691-.092 2.132-.344.274.09.697.102.898.23.188.511-.373.86.561 1.091.323-.008.734.03.898-.058.502.187.693.56.449.976-.398.064-.829.113-1.01.287-.013.524.347.856 1.234.92.377.16.628.386.816.645v5.608H18.12v-3.247c.381-.042.868-.027.896-.25-.582-.166.01-.11 0-.403-.391.059-.66.014-.896-.045" style="fill:#040606;fill-opacity:1;fill-rule:nonzero;stroke:none;stroke-width:.0352778" transform="translate(-18.056 -29.945)"/><path d="M195.678 211.82h-1.014c-.238-.368-.693-.262-.835-.671.111-.208.045-.208.23-.113.278-.73.252-1.729 0-2.47.256.092.319-.197.345-.56-.082-.364-.214-.628-.517-.561-.202-.483-.587-1.147-.92-1.01-.062-.497.098-.557.116-.899.272-.046.336.318.516.452-.05-.723-.02-1.782.632-1.683-.018-.222.077-.222.114-.339-.127-.257-.223.04-.401 0l.029-.204c-.104.155-.21.279-.345.3l.086.13c-.139.29-.302.53-.459.787-.118-.483-.435-.572-.574-1.013.181-.13.2-.582.344-.783.26.279.576-.293.632-.786-.038-.152-.123-.209-.23-.226-.015-.402.227-.304.23-.67-.127-.237-.382-.089-.46.109.017-.293-.021-.48-.172-.448-.058 0-.068.092-.115.113l-.085-.057-.087.057v-.448c-.13-.494-.464-.59-.517-1.235-.264.007-.342.377-.574.448.004-.194-.044-.29-.115-.335-.031.575-.495.303-.631.674a1.03 1.03 0 0 0-.116-.339c-.023.303-.272.462-.402.226l.03-.113-.345.17.086.056c-.01.165.02.412-.058.448-.127-.163.073-.276-.057-.339-.143.36-.281.141-.46 0-.038.41-.333.183-.401 0-.016-.377.313-.385.114-.783h-.057l.029-.208-.086-.13c.05-.237.175-.332.172-.675-.42-.113-.85-.208-1.149-.56l.029-.205c-.095.127-.191.14-.287.148l.03.17c-.161-.131-.343-.015-.46.225-.38-.194-.67-.564-.69-1.46.25.003.517.038.69-.11.02-.554.356-.49.4-.998l-.173-.12c-.136.356-.323-.11-.458-.116-.127.26-.05.3-.114.56-.24.096-.271-.218-.46-.225a.31.31 0 0 1-.115.225l-.028-.169a1.083 1.083 0 0 1-.088.37c-.112.04-.265-.035-.314-.257l-.029.17c-.324-.184-.202-.928-.115-1.461-.005-.261-.185-.18-.222-.381l-.323.437c.085-.144.18-.271.206-.5.036-.047.088-.043.13-.043.013.014.025.025.036.039v-.113c.286-.092.189-.822.633-.561.018-.265.09-.42.057-.787l.075-.144.04-.19c.124.317.398.345.574.56 0 .113-.046.134-.057.222-.076.04-.188.089-.345.226.008.773.388 1.023.345 1.57h.115l.085.056.087-.056c.05.166.086.356.23.339l-.03.169c.102-.134.221-.095.308.06.006.046.011.092.01.162l.057.057c.108.2.265.303.344.56h-.058v.113c.024.272-.104.244-.056.561h.229l.086.057-.028-.17c.156-.07.455.145.516-.112.077.074.107.24.115.451l-.086-.056c.028.148.035.3.057.448l.029-.17h.402l.087.057.085-.057c.029.41.523-.077.423-.109.171.021.244.533.38.11l.03.169v-.438a1.435 1.435 0 0 1 0-.236l-.03.17c-.227.063-.598-.145-.803.222l-.085-.053-.087-.057h-.172c-.008-.278-.009-.543.057-.674.084.149.454.23.46-.112-.056-.417-.247-.568-.517-.561.015.652-.21.137-.287.56-.106-.017-.035-.38-.115-.447h-.058l.03-.209c-.181.141-.438-.088-.432-.494.02-.074.057-.2.105-.363l-.104.053c.002-.339.033-.737-.173-.67.029-.395.086-.73.057-1.235-.308-.317-.31.067-.689-.113-.04-.346-.04-.215 0-.56h.518c.088-.163.05-.576.056-.897-.272.346-.65.152-.976 0-.013.085-.001.219-.057.222l-.029-.165-.086.053c-.19-.508-.498.067-.46.673-.034-.007-.067-.014-.056-.113-.004-.116-.075-.088-.059.113l-.074.148-.04.191c-.336-.279-.781-.346-.92-1.012-.182-.096-.217.098-.286.225.025-.772.314-1.03.574-1.347.018-.152.082-.212.057-.448-.173-.16-.306.05-.516.113-.037-.625-.31-.498-.516-.561.003-.526-.266-1.101-.518-1.46l.029-.167-.086-.056c-.04-.304.118-.219.172-.335l.029.165c.005-.186-.013-.384.029-.56l-.058.056c-.076 0-.053-.198-.115-.226l.029-.166-.087.057c.004-.198-.012-.35-.056-.448-.139.14-.25.335-.403.448-.245-.194-.199-.96-.344-1.348.152-.039.194-.296.23-.56-.088-.505-.447-.816-.288-1.458.274.113.476.346.747.223.044.264.113.776 0 1.008.265-.144.158.441.287.561.033-.363.121-.208.172-.335v-.338l.087.056c-.043-.233-.016-.476 0-.72v-.402l-.087.057c.032-.773-.65-.152-.632-.896.103-.064.239-.06.287-.226v-.448c-.45-.279-.687-.974-1.148-1.235.115-.148.25-.261.287-.56.31.242.473-.103.574-.562.013.127.065.177.115.226l.087.053.086-.053c-.118.903.146 1.058.46 1.122.052.624.037.23-.115.448-.017.254.013.42.114.448.086-.13.068-.466.23-.448.132.23.229.525.402.674.102-.25.396-.124.459-.448.039-.413-.123-.43-.114-.787.199.014.083-.586.23-.674-.093-.23-.289-.261-.517-.222-.031-.924.594-.561.573-1.46.028-.353-.081-.438-.115-.674.267.116.498-.205.632 0l-.028.204.086.134c-.198.716-.336 2.156 0 2.353-.125.166-.309.222-.402.452.21.483.532.836.862.783v.339l-.087.056.029.166c-.074.007-.08.144-.173.113-.018.26.01.43.058.56.101-.098.178-.25.23-.447l.057.056.058.056h.23c-.024-.14-.075-.229-.173-.225l-.029-.17-.086-.053c.03-.391.375-.165.574-.225l-.028.204c.133-.035.266-.211.402-.113l-.029-.204c.343.074.602-.022.747-.335-.066.469.244.366.344.783-.338.091-.56.402-.69.9-.231-.184-.393.338-.228.56.226.145.139-.328.287-.335.032.346.306.219.23.783l-.087.057.029.169c-.288-.004-.491.162-.46.783.139.046.126-.204.288-.113.14.152-.105.339.057.452h.115l-.029.204.23-.187-.086-.13c.003-.145.074-.155.057-.339.161.138.396.127.632.113 0-.113.047-.13.057-.222-.071-.385-.372-.321-.517-.561-.013-.367.33.078.23-.674-.1-.063-.338.134-.345-.113.322-.268.548-.726.804-1.122.237.4.244 1.242.631 1.348-.084.021-.052.268-.057.448.229-.11.178.325.23.561l-.086.056.086.057c-.145.314-.13.942-.23 1.347l-.028-.169.148 1.065c.14.015.234-.06.283-.225l.057.056.058.057c.133-.036.22.017.287.112.104-.268.15-.649.057-1.009.143.015.178-.176.287-.225l.029.169.028-.17c.112.047.046.435.23.34.084-.452.115-.897.057-1.348-.142.014-.278.02-.287-.226.117-.19.166-.748 0-.896-.166 0-.135.635-.057.783-.278-.053-.253.554-.516.226.1-.963-.22-1.443 0-2.018-.109-.201-.38-.085-.575-.113-.101-.547.046-.377.115-.787l.086.057.029-.17c.094.198.197-.088.23-.335h-.23l-.086-.056-.029.17c-.178-.336-.25.169-.403.221-.088-.349-.195-.663-.344-.896.068-.317.268-.377.403-.56.052-.477-.138-.48-.345-.449.136-.455-.19-.388-.23-.786.006.063.107-.25.115-.335.087-.843-.153-1.224-.344-1.235v-.674c-.101-.102-.106-.395-.173-.56l.087-.057.028-.17c.117.198.113-.084.23.113v.561c.177.29.297.692.46 1.01.057-.371.306-.371.573-.336.058-.353.263-.836.173-1.122-.12.064-.186.237-.287.335-.169-.592-.201-.853-.287-1.682h-.173c.033-.572-.087-1.443.114-1.683l.088.056.086-.056c-.285 1.22.628 1.496.918 1.235.152-1.087-.488-1.486-.804-2.022.002-1.005.616-.815.804-1.457l.087.057a2.32 2.32 0 0 1-.029-.448l-.058.052c-.1-.55-.411-.687-.517-1.23-.614-.117-1.387-.071-1.837.447v.113l-.105-.056-.067.166c-.12-.29-.367-.939-.058-1.122-.003.194.044.29.115.338.217-.511.797.032.92-.448-.066-.324-.247-.416-.46-.451.112-.36.161-.794 0-1.122.226.07.985.702.917-.335-.075-.187-.325-.039-.401-.226-.024-.38.172-.335.23-.56-.147-.011-.201-.205-.287-.336.101-.028.13-.194.114-.448l.086-.056-.028-.17c.291-.14.515-.416.516-1.122-.056 0-.068-.091-.114-.112-.163.194-.5.37-.632 0 .002-.484.305-.374.23-1.01-.182-.282-.396-.497-.46-1.008l-.028-.113c-.057.004-.115-.025-.173-.057l.029.17v1.009c-.139.046-.124-.205-.287-.113-.094.37-.058.857.057 1.122-.155.257-.204.384-.46.225-.05-.723-.301-1.054-.573-1.347.13 1.376-.217 1.824-.23 2.917-.368.103-.66.357-.804.9.008-.201-.057-.265-.172-.226-.001.483-.12.74-.173 1.122-.063-.226-.308.137-.516 0-.102-.187.05-.378 0-.787.214-.067.376-.236.516-.448-.055-1.866.772-2.007.575-4.152-.22-.314-.508-.48-.345-1.009-.235-.127-.876-.367-.804.448h.058l.028.17.087.056c-.032.162-.09.275-.173.335-.147-.374-.248-.173-.402-.448.013.36-.101.476-.057.9-.202.014-.257.32-.46.335.057-.632-.042-.963-.287-1.01-.023-.271.105-.243.058-.56-.163-.244-.367-.406-.517-.674.22-.646.614-.138.919 0 0-.148.1-.102.115-.226.006-.32-.031-.734.057-.896.241-.293.241.18.459.222.045-.247.034-.606.173-.67.054.568.606.759.861.561.005-.571-.282-.571-.402-.9.005-.684-.148-1.054-.287-1.457-.012.089-.048.131-.115.11-.089.49.254.624 0 .787-.06-.254-.36-.043-.517-.113-.157-.216-.1-.85-.287-1.01-.112.156-.302.16-.344.449-.218-.656-.686.123-1.034-.113l-.029-.166-.086.056c-.34-.973.556-.96.345-1.682l.086-.057-.029-.17c.007-.214.193.131.345 0 .165-.539.244-1.24.574-1.456v-1.013c-.12.103-.17.343-.345.34-.184-.426-.486-.621-.689-1.012l.087-.056.028-.168c.15-.785.703-.905.804 0 .184-.015.253-.255.23-.673-.417-.046-.39-.958-.632-1.347-.07.162-.197.213-.344.225l.028-.169-.086-.055c.185-.753-.111-1.288-.46-1.347v-.561c.171-.19.335-.394.575-.448.015.328-.13.344-.115.673.052.197.128.347.23.448.14-.438.502-.439.517-1.121l.105.055.067-.168c.125.182.378.115.498.305l.278-.36c-.022.14-.024.28-.042.362-.1.055-.2.098-.303.086l.086.055c-.04.372-.438.042-.46.45.076 0 .053.196.115.224h.058c.23-.343.473.032.746-.224.033.363-.017.564-.114.673.172-.113.102.25.114.449.146.15.456.373.632.112.074.47.3.333.46.56.178.255.263.74.459.898-.012-.01.155-.246.23-.224.164.047.244.477.402.336.297-.494 1.117-.21 1.263-.673.028-.497-.016-.68-.115-.673.1-.102.2-.208.172-.56-.184-.464-.308-1.045-.631-1.235.005.195-.013.35-.058.448l-.105-.055-.067.168c-.183-.4.146-1.232-.057-1.683.186-.047.182-.466.344-.56.008.208.038.374.115.448.063-.61-.136-.706-.172-1.123.31-.142.387-.738.631-1.01-.01-.316.05-.769-.114-.785-.204.038-.142.31-.345.113l.028-.206-.086-.131c.028-.353-.082-.438-.114-.673.244-.307.387-.815.631-1.122.096.177-.075.515.172.56.132-.275.293-1.14.116-1.345-.12.244-.165-.056-.345 0l.029-.206-.086-.13c-.154-.588-.156-.802-.288-1.46-.35-.123-.637.35-.804.225h-.057c.019.074.046.135.074.193a.923.923 0 0 1-.017.256h.058c.062.496-.098.557-.115.897.054.23.117.444.172.674h-.057v.112c-.096.343-.585.175-.976.224l.028-.168-.102.158c-.011.073-.019.155-.043.21a.666.666 0 0 0-.142.08l.086.057c-.031.228-.173.22-.057.448.222.06.236-.286.402-.336.04.408.3.387.46.561l-.087.056.029.168c-.06.257-.41-.053-.46.225.113.678.55.72.574 1.57-.229.074-.393.278-.574.45-.596.02-.418-1.87-1.033-1.46l.028-.167-.086-.057c-.008-.277-.008-.54.058-.673.143-.206.472-.05.46-.561-.32.063-.226-.682-.403-.897h-.517l-.029-.169-.085.056c-.111-1.058-.329-2.24-.919-2.02l-.086-.056-.086.057c-.004-.069-.01-.133-.058-.113-.106.13-.04.596-.287.449.092-.646-.365-.742-.345-1.57.156.12.27.07.345-.225.002-.49-.159-.663-.172-1.122.186-.065.267.076.401.112.076-.348-.015-.32 0-.785.05-.353.316-.28.345-.673-.057-.315-.153.162-.23-.113v-.561l.106.057.067-.169c.151.214.475.015.631-.112-.065-.85-.44-.974-.919-1.234-.108.388-.443.33-.631.56-.02-.26-.037-.525-.23-.448v.56c.254.066.55.047.747.225-.19.043-.117.597-.345.56-.287-.256-.855-.194-1.034-.335.04-1.172-.461-1.192-.287-2.357.136.002.17-.193.345-.111.08.142.025.55.172.56.015-.157.126-.128.172-.224l.03.168c.034-.135.044-.263.114-.336l-.086-.057v-1.121c.301.15.435-.523.574-1.01.163.392.285.862.517 1.121.077-.493-.251-.772-.058-1.121.218.174.554.116.69.449.037-.413.341-.305.516-.45l-.028.169.028.168v.561c.26-.06.23.45.402.561.363.08.835-.122 1.034 0l-.03.113c.103-.13.233-.152.346-.057l-.029-.168h.288c.031.462.214.629.516.561l.058.056.057-.225-.057-.055c-.444-.365-.287-1.085-.115-1.796-.05-.651-.68-.165-.747-.785l.03-.168-.087-.056c.209-.192.524-.174.46-.898-.126-.072-.183.319-.173-.112.092-.23.376-.088.287-.673a.891.891 0 0 0-.919.112c.066-.353-.09-.272-.115-.449.144.02.18-.172.23-.337l.058.056.057.057c.102-.026.288.113.23-.224-.078.035-.11.159-.23.111l-.029-.168-.086.057c-.152-.362-.377.078-.287.56-.502.427-.82.537-1.551.45v.111l-.086-.055-.086.055c-.186-.426-.737-.258-.804.225-.06-.294-.233-.368-.46-.337.116-.413.022-.8-.044-1.162l-.185.04h.058c.028.464-.33.608-.402.224-.242.527-.697-.037-.977.337.071-.493.193-.838-.057-1.122.182-.512.586.405.861-.337.028-.352-.154-.296-.172-.56.306-.006.512.011.631.112.179-.519.753-.317.862-.673.028-.354-.082-.439-.115-.674.206-.01.333-.174.517-.224.103.508.487.47.746.673-.005-.348.181-.32.116-.785-.2.09-.221-.167-.403-.113v-.672c-.37-.453-.712.08-1.148.111-.033-.393.271-.369.115-.673-.08-.005-.126.053-.172.113.018-.26-.01-.43-.058-.562l.086-.055.086-.057c.148-.154.014-.687 0-.897.204.06.296-.095.345-.337-.276-.756-.21-2.696-.92-2.244-.14-.418-.074-.623-.057-1.234l.086.056a1.4 1.4 0 0 1-.114-.449l-.086.056c.006-.461-.268-.373-.287-.785l.028-.112-.028-.113c.312-.23-.12-.763-.115-1.121-.045-.025-.113-.004-.115-.113l.086-.056.029-.168c.064-.024.09-.124.115-.224.041.228.243.321.344.112-.039-.409-.217-.547-.287-.896l-.2.167c.02-.097.038-.205.055-.27.072-.11.189-.171.242.023l.075-.146c.31-.067.399-.568.747-.562.263-.232.592-.338.746-.784.122.136.167.421.345.448.084.002.182-.473.172 0 .199.304-.319.561-.057 1.01l-.098.079c.04.09.065.21.088.314l.067-.168c.144.092.225.307.402.336.167-.797.788-.704 1.321-.785.102-.25.226-.456.172-1.01.135-.036.216-.178.403-.113.276-.695.249-1.443-.116-1.907-.248-.074-.355.128-.459.337-.331-.534-1.046.274-1.263-.561.21-.263.38-.604.574-.898.087.606.363-.124.517-.112.054.212.414.831.516.224-.08-.217-.297-.167-.402-.336.043-.37.388-.734.23-1.122l.029-.168-.086.055c-.147-.456.027-1.1.057-1.57-.14-.584-.299-1.136-.516-1.571.06-.002.384.169.402-.449-.293-.213-.306-.974-.575-1.234-.37.012-.732.008-.976-.225l.086-.13-.5.03a.367.367 0 0 1-.132.007l.03.206h-.805c-.003.068-.008.132-.057.112v-.112c-.04.235-.092.54-.244.562a.639.639 0 0 1-.245-.618l-.085.056c0-.113-.047-.134-.058-.225l.086-.056-.028-.168c.328-.106.576-.37.746-.785v.112c.026-.126.018-.324.086-.505l-.086.056c-.28.245-.528.45-.746-.112-.19.664-.722-.002-1.035-.112v.673c-.271.081-.377-.16-.516-.337l.028-.168-.028-.168c.148-.086.2-.359.172-.786.496-.147.747-.095 1.206-.337.1-.373-.029-.497 0-1.01.077-.111.113-.303.23-.336l.066.168.106-.055c-.004.195.013.348.058.448.162.093.148-.158.287-.112l-.029.168.086-.056c.169.636-.261.753-.23 1.458.248.316.569-.044.69-.336.278.415.32.004.516.449.221-.3.455.086.575-.45.132-.033.064.326.172.337l-.029.169c.077.005.152.004.23.037l-.029-.206a.69.69 0 0 1 .517-.111c.106-.766.838-.309.861-1.234-.327-.11-.663-.201-.803-.674.33-.38.681-1.604.402-2.468-.182.393-.664.199-.863.56 0 .063.047.128.059 0 .073.205.033.639-.173.786-.234.083-.198-.362-.46-.224.06.676-.05 1.023-.401.898-.008.356-.13.493-.115.897.158.176.495.005.574.337-.106.315-.218.622-.287 1.01-.083-.138-.087-.429-.172-.561-.218-.15-.59.502-.574-.225l.086-.13-.03-.206c.074-.006.08-.144.173-.113.07-.644-.462-.71-.574-.336l-.03-.057-.027-.055c-.27-.045-.19-.069-.46-.113l-.067-.168-.106.056c-.034-.231-.089-.425-.286-.336.013.474-.09.72-.172 1.01-.102-.178-.076-.602-.173-.786-.244-.028-.31.293-.574.224-.23-.213.057-.77-.172-.897-.166.013-.1.478-.288.449-.131-.118-.347-.072-.46-.225-.047-.293.175-.615 0-.786-.135-.003-.168.194-.343.113l.028-.168-.086-.057c-.014-.16-.095-.189-.115-.336l.086-.056-.028-.168c.148-.39.731.748 1.09 0l.03.168c.058-.105.15-.287.229-.336l-.086-.057c-.013-.212.064-.248.057-.449.155-.077.11.232.172.337l-.086.13c.068.057.128.107.173.15l-.03-.168c.368-.408-.048-1.132-.286-1.346.233-.032.399-.193.632-.225l-.029.169.086.056c-.129.24.04.396.23.336l-.03.205.087.132c-.13.202-.136.567-.057.898.272-.178.352-.228.632 0-.066-.653.067-.915.401-.786.12.029.016.493.115.561.057-.238.362.24.46-.112-.007-.137-.018-.266-.115-.224l.029-.206-.086-.131c.12-.364.61-.002.516-.786-.543.014-.646-.832-1.091-1.01l.029-.168-.03-.168h.059c.049-.357-.05-.426-.115-.56.585-.128.984-.62 1.435-1.01-.014-.16-.094-.19-.114-.337l.086-.056-.03-.169c.216-.215.466-.362.633-.673.014-.366-.069-.54-.23-.56l.029-.113-.144.112h.057c-.353.554-1.112 1.015-1.55.449l.028-.168c-.14.179-.3.034-.45.066-.033-.109-.032-.26-.038-.403l-.057-.056c-.108.025-.127-.126-.23-.112.018-.261.123-.484-.057-.56-.204.225-.202.151-.46.223-.1-.403-.243-.72-.286-1.234.341-.465.665.023.975-.224.056.452.31.516.46.785.098-.144.226-.232.23-.56.368.035.615-.255.86.111l.068.169c.103-.377.299-.815.537-.602.017.062.035.17.057.265l.132-.155c.046-.078.091-.16.155-.182l-.029-.168c.104-.171.176-.404.402-.337.098.07.095.339.173.45.084-.209.297-.169.286-.562-.136-.431-.173-.764-.286-1.01-.007.09-.19.34-.173.113.2-.363-.06-.776-.115-1.01-.027-.354.177-.254.115-.673h-.288l.03-.206-.087-.131c.104-.348.176-.06.403-.112-.013-.213.064-.248.057-.449-.094-.3-.244-.497-.344-.785h-.058l.028-.206-.086-.131c.316-.389.595-1.465.116-1.907-.079.407-.29.553-.46.785.075-.495-.004-.46-.115-.785.179-.176.377-.312.46-.673-.093-.345-.305-.452-.345-.898l.029-.168c-.08.131-.172.14-.264.16l.178-.109c.047-.38-.007-.52.057-1.006-.108-.126-.277-.132-.23-.56l.086-.056c-.148-.103-.156-.415-.143-.673l-.058.167c-.073-.006-.079-.143-.172-.112.153-.225.255-.549.345-.897l.105.056.067-.168c.176-.082.169.194.344.112.225-.46.567-.69.632-1.459-.285-.078-.216-.848-.574-.785-.018-.447-.004-.83.115-1.01.191.002.375.174.574 0 .158.388.162.375.173 1.01.106.09.232.145.286.336-.012-.212.065-.247.058-.448-.344-.235-.274-1.72-.69-1.459.024-.794-.336-.838-.516-1.235.105-.667-.222-.913-.115-1.233.316.432.604.06.804-.337.019-.26-.01-.43-.057-.56.162-.432.597-.33.516-1.235-.18-.133-.433-.126-.574-.337l.086-.056-.028-.168c.047-.282.075-.601.287-.56l.086.055c.067-.137.154-.223.23-.337l-.087-.055c.094-.342.254-.554.23-1.123-.765.187-1.298-.893-1.09-1.907-.077.035-.11.153-.224.114l-.093.728c.02-.295-.062-.744.115-.898l-.086-.056c.148-.458.663-.2.746-.786-.035-.267-.25-.184-.172-.673.49.08.087-.702.115-1.458.012-.316.28-.376.057-.673-.127.088-.144.392-.23.56h-.401l-.029-.168-.086.056c.228-.64.422-1.344.804-1.683.136-.726-.226-1.027-.058-1.908.42-.115.642-.617.804-1.234-.021-.369-.305-.226-.287-.673-.069-.546.229-.376.23-.785-.128-.31-.32-.497-.574-.56l.029-.207c-.038.021-.077.03-.115.038l.029.168c-.053.197-.107.39-.288.336l.03-.168c-.091.133-.14.202-.202.281h.058c-.22.319-.046.905-.058 1.459.11-.048.104-.321.287-.225.085.357.12.815.23 1.122-.108.09-.21.187-.345.224-.095-.15-.019-.635-.114-.785l-.03-.168a.439.439 0 0 1-.114-.038l.029.206c-.181.395-.119 1.264-.345 1.57l-.086-.055-.029.168c-.195.142-.276.506-.517.56-.006-.175.008-.388-.115-.336.002.264-.098.33-.057.674l-.086-.056-.029.168c-.073-.268-.121-.585-.402-.45l-.029-.167-.114.449.086-.056c-.034.232.071.737-.058.785-.17-.32-.465.256-.46-.449l.087-.13c-.243-.229-.19-.817-.041-1.144l-.103.04c.118-.334.19-1.056-.057-1.234l.028-.112-.028-.113c.187-.532.504-.81.861-1.01h.123c-.044-.396.064-.676.144-.985l.078-.53-.057-.056c-.411-.109-.655.647-1.092 1.01l-.066-.167-.106.055v-.448c-.233-.317-.506.086-.804 0l.029-.169-.086-.056c.048-.58-.112-.755-.23-1.01l-.029-.167-.029-.17c.148-.236.34-.384.517-.56l.029.168.086-.056v.225c.343.146.428-.212.632-.337.083.137.087.428.172.56l.029.17.086-.057v.112c.119.198.05.347.114.449.03-.166.086-.283.115-.45.249 0 .322.207.46-.11.032.2.03.465.115.56.035-.156.22-.017.23-.225V50.59l.086-.056-.03-.169c.184-.165.167 1.018.575.785-.016.294.021.483.172.45.025-.251.102-.4.23-.45.24.207.286.79.517 1.01.474-.007.444-1 .976-.897.15-.867.592-1.163 1.149-1.235l.058.057c.004-.15.002-.3.028-.45l-.086.057c-.197-.693-.621.518-.862.112v-.897c-.487.18-.175-1.591-.689-1.01.02-.41.245-.42.287-.786-.116-.445-.406-.552-.516-1.01-.202.35-.282-.493-.632-.224-.008-.132.01-.318-.058-.336-.88.314-.695-1.978-1.32-1.795v.448c-.475.61-.67-.113-1.206-.224.041-.343-.1-.33-.057-.673.188-.198.492.193.63.449.581-.252.437-1.408.518-2.469.142.015.277.017.344-.112l.029.168.029-.168c.138-.141.203-.426.402-.449.052.27.167.42.287.561-.12.066-.186.236-.287.337l-.029-.169-.029.337.058-.056c.073.192.118.44.287.449.23-.207.226-.441.172-1.01.107-.09.21-.187.344-.224.032.314.085.583.116.897.254.267.79.627.861-.224-.055-.525-.147-.935-.172-1.235.107-.162.298-.165.344-.448.013-1.238.716-1.405.861-2.244.05-.292-.104-.205-.113-.538.012.052.097-.628.113-.696.083-.328.282-.365.46-.337.06.3.426.581.517.449.076-1.083-.092-1.691-.345-2.132.09-.274.103-.697.23-.898.512-.188.86.374 1.092-.56-.008-.324.03-.735-.059-.898.188-.503.56-.694.977-.45.064.399.112.829.287 1.01.523.014.856-.347.92-1.233.16-.378.386-.63.644-.817h5.609V211.82h-3.247c-.042-.38-.028-.868-.25-.896-.167.582-.111-.01-.403 0 .059.392.013.66-.046.896" style="fill:#040606;fill-opacity:1;fill-rule:nonzero;stroke:none;stroke-width:.0352778" transform="translate(-18.056 -29.945)"/><path d="M199.56 33.89v1.015c-.367.239-.261.693-.67.835-.209-.111-.209-.045-.113-.23-.73-.278-1.729-.252-2.47 0 .092-.256-.197-.319-.56-.345-.364.082-.629.215-.562.517-.483.202-1.146.587-1.009.92-.497.062-.557-.098-.9-.116-.045-.272.318-.336.452-.516-.723.05-1.781.02-1.682-.632-.223.018-.223-.077-.34-.114-.257.127.04.223 0 .401l-.204-.029c.156.104.279.21.3.345l.13-.086c.29.139.53.302.787.459-.483.118-.571.435-1.012.574-.13-.181-.582-.2-.783-.344.278-.26-.293-.576-.787-.632-.152.038-.208.123-.226.23-.402.015-.303-.227-.67-.23-.236.128-.088.382.11.46-.293-.017-.48.021-.449.172 0 .058.092.068.113.115l-.056.085.056.087h-.448c-.494.13-.589.464-1.235.517.007.264.378.343.449.574-.195-.004-.29.044-.336.115.575.031.304.495.674.631a1.03 1.03 0 0 0-.339.116c.304.023.463.272.226.402l-.113-.03.17.345.056-.086c.166.01.413-.02.448.058-.162.127-.275-.073-.338.057.36.143.14.281 0 .46.409.038.183.333 0 .401-.378.016-.385-.313-.784-.114v.057l-.208-.029-.13.086c-.237-.05-.332-.175-.674-.172-.113.42-.208.85-.561 1.149l-.205-.029c.127.095.142.191.149.287l.169-.03c-.13.161-.014.343.226.46-.194.38-.565.67-1.46.69.003-.25.038-.517-.11-.69-.554-.02-.49-.356-.999-.4l-.12.173c.357.136-.109.323-.116.458.261.127.3.05.561.114.095.24-.219.271-.226.46a.31.31 0 0 1 .226.115l-.17.028c.152.016.269.037.371.088.039.112-.035.266-.257.314l.169.029c-.184.324-.928.202-1.46.115-.262.005-.18.185-.382.222l.438.323c-.145-.085-.272-.18-.501-.206-.046-.036-.042-.088-.042-.13.014-.013.024-.025.038-.036h-.112c-.092-.286-.822-.189-.561-.633-.265-.018-.42-.09-.787-.057l-.145-.075-.19-.04c.317-.124.345-.398.56-.574.114 0 .135.046.223.057.039.076.088.188.226.345.772-.008 1.023-.388 1.57-.345v-.115l.056-.085-.056-.087c.165-.05.356-.086.338-.23l.17.03c-.134-.102-.096-.221.06-.308a.973.973 0 0 1 .162-.01l.056-.057c.201-.108.304-.265.561-.344v.058h.113c.272-.024.244.104.561.056v-.229l.056-.086-.169.028c-.07-.156.145-.455-.113-.516.074-.077.24-.107.452-.115l-.057.086c.149-.028.3-.035.448-.057l-.169-.029v-.402l.057-.086-.057-.086c.41-.028-.077-.523-.11-.423.022-.171.533-.244.11-.38l.17-.03h-.438a1.435 1.435 0 0 1-.236 0l.169.03c.063.227-.145.598.222.803l-.053.086-.056.086v.172c-.279.008-.543.01-.674-.057.148-.084.23-.454-.113-.46-.416.056-.568.247-.56.517.652-.015.137.21.56.287-.017.106-.38.035-.448.115v.058l-.208-.03c.141.181-.088.438-.494.432-.074-.02-.201-.057-.363-.105l.053.104c-.34-.002-.738-.033-.67.173-.396-.029-.73-.086-1.235-.057-.318.308.067.31-.113.689-.346.04-.215.04-.561 0v-.518c-.162-.088-.575-.05-.896-.056.345.272.151.65 0 .976.084.013.218.001.222.057l-.166.029.053.086c-.508.19.067.498.674.46-.007.034-.014.067-.113.056-.116.004-.088.075.113.059l.148.074.19.04c-.278.336-.345.781-1.012.92-.095.182.099.217.226.286-.773-.025-1.03-.314-1.348-.574-.151-.018-.211-.082-.448-.057-.159.173.05.307.113.516-.624.037-.497.31-.56.517-.526-.003-1.101.266-1.461.517l-.166-.029-.056.086c-.304.04-.22-.118-.336-.172l.166-.029c-.187-.005-.384.013-.56-.029l.056.058c0 .076-.198.053-.226.115l-.166-.029.056.087c-.197-.004-.349.012-.448.056.142.139.336.25.448.403-.194.245-.96.199-1.347.345-.039-.153-.296-.195-.561-.23-.505.087-.815.446-1.457.287.113-.274.346-.476.222-.747.265-.044.776-.113 1.01 0-.145-.265.44-.158.56-.287-.363-.033-.208-.121-.335-.172h-.339l.057-.087c-.233.043-.477.016-.72 0h-.402l.056.087c-.772-.032-.151.65-.896.632-.063-.103-.06-.239-.226-.287h-.448c-.278.45-.973.687-1.234 1.148-.149-.115-.261-.25-.561-.287.243-.31-.103-.473-.561-.574.127-.013.176-.064.226-.115l.052-.087-.052-.085c.903.117 1.058-.147 1.121-.46.625-.053.23-.038.448.114.254.017.42-.013.448-.114-.13-.086-.465-.068-.448-.23.23-.132.526-.229.674-.402-.25-.102-.123-.396-.448-.459-.413-.039-.43.124-.786.114.014-.199-.586-.083-.674-.23-.23.093-.261.289-.223.518-.924.03-.56-.595-1.46-.574-.353-.028-.437.081-.674.115.117-.267-.204-.498 0-.632l.205.028.134-.085c.716.197 2.155.335 2.353 0 .166.124.222.308.451.401.484-.21.837-.532.784-.862h.338l.057.087.165-.029c.007.074.145.08.113.173.261.018.43-.01.561-.058-.099-.101-.25-.177-.448-.23l.057-.057.056-.058v-.23c-.141.024-.23.075-.226.173l-.17.029-.052.086c-.392-.03-.166-.375-.226-.574l.205.028c-.035-.133-.212-.266-.113-.402l-.205.029c.074-.343-.02-.602-.335-.747.47.066.367-.244.783-.344.092.338.403.56.9.69-.183.231.339.393.56.228.146-.226-.327-.139-.334-.287.345-.032.218-.306.783-.23l.056.087.17-.029c-.004.288.162.491.783.46.046-.139-.205-.126-.113-.288.152-.14.339.105.451-.057v-.115l.205.029-.187-.23-.13.086c-.145-.003-.156-.074-.34-.057.139-.161.128-.396.114-.632-.113 0-.13-.047-.222-.057-.385.071-.321.372-.561.517-.367.013.077-.33-.674-.23-.064.1.134.338-.113.345-.268-.322-.727-.547-1.122-.804.399-.237 1.242-.244 1.348-.631.02.084.268.052.448.057-.11-.229.324-.178.56-.23l.057.086.056-.086c.314.145.942.13 1.348.23l-.17.028 1.066-.148c.014-.14-.06-.234-.226-.283l.057-.057.056-.057c-.035-.134.018-.221.113-.288a1.71 1.71 0 0 0-1.009-.057c.014-.143-.176-.178-.226-.287l.17-.029-.17-.028c.046-.112.434-.046.339-.23a4.307 4.307 0 0 0-1.348-.057c.015.142.022.278-.225.287-.19-.117-.748-.166-.896 0 0 .166.635.135.783.057-.053.278.554.253.226.516-.964-.099-1.443.22-2.018 0-.201.109-.085.38-.113.575-.547.101-.378-.046-.787-.115l.056-.086-.169-.029c.198-.094-.088-.197-.335-.23v.23l-.056.086.169.029c-.335.178.17.25.222.403-.35.088-.663.195-.896.344-.317-.068-.377-.268-.56-.403-.477-.052-.48.138-.449.345-.455-.136-.388.19-.787.23.064-.006-.25-.107-.335-.115-.843-.087-1.224.153-1.234.344h-.674c-.103.101-.395.106-.561.173l-.057-.087-.169-.028c.198-.117-.085-.113.113-.23h.56c.29-.177.692-.297 1.01-.46-.37-.057-.37-.306-.335-.573-.353-.058-.836-.263-1.122-.173.063.12.236.186.335.287-.593.169-.854.201-1.683.287v.173c-.571-.033-1.443.087-1.682-.114l.056-.087-.056-.087c1.22.285 1.495-.628 1.234-.918-1.086-.152-1.485.488-2.021.804-1.006-.002-.815-.616-1.457-.804l.056-.087a2.32 2.32 0 0 1-.448.029l.053.058c-.55.1-.688.411-1.231.517-.116.614-.07 1.387.448 1.837h.113l-.057.105.166.067c-.289.12-.938.367-1.122.058.194.003.29-.044.34-.115-.512-.217.03-.797-.449-.92-.324.066-.416.248-.451.46-.36-.112-.794-.161-1.122 0 .07-.226.702-.985-.335-.917-.187.075-.04.325-.226.401-.381.024-.335-.172-.561-.23-.01.147-.205.201-.335.287-.028-.101-.194-.13-.448-.114l-.057-.086-.169.028c-.141-.29-.416-.515-1.122-.516 0 .056-.092.068-.113.114.194.163.37.5 0 .632-.483-.002-.374-.305-1.009-.23-.282.182-.497.396-1.009.46l-.113.028c.004.058-.024.115-.056.173l.17-.029h1.008c.046.139-.204.125-.113.287.37.094.858.058 1.122-.057.258.155.385.204.226.46-.723.05-1.055.301-1.348.573 1.376-.13 1.824.217 2.918.23.102.368.356.66.9.804-.202-.008-.265.057-.226.172.483.001.74.12 1.122.173-.226.063.137.308 0 .516-.187.102-.378-.05-.787 0-.067-.214-.236-.376-.448-.516-1.866.055-2.007-.772-4.152-.575-.314.22-.48.508-1.01.345-.126.235-.366.876.449.804v-.058l.17-.028.055-.087c.163.033.276.09.336.173-.374.147-.173.248-.448.402.36-.013.476.101.9.057.013.202.32.257.334.46-.631-.057-.963.042-1.009.287-.271.023-.243-.105-.56-.058-.244.164-.406.367-.674.517-.646-.22-.138-.613 0-.919-.149 0-.103-.1-.226-.115-.321-.006-.734.031-.896-.057-.293-.241.18-.241.222-.459-.247-.045-.607-.034-.67-.173.568-.054.758-.606.56-.861-.57-.005-.57.282-.899.402-.684-.005-1.055.148-1.457.287.088.013.13.048.11.115.49.089.624-.254.786 0-.254.06-.042.36-.113.517-.215.157-.85.1-1.009.287.156.112.16.302.448.344-.656.218.124.686-.112 1.034l-.166.029.056.086c-.974.34-.96-.556-1.683-.345l-.056-.086-.17.029c-.215-.007.131-.193 0-.345-.54-.164-1.241-.244-1.456-.574h-1.013c.102.121.342.17.339.345-.425.184-.62.486-1.011.689l-.056-.087-.168-.028c-.785-.15-.905-.703 0-.804-.015-.184-.255-.253-.673-.23-.047.417-.959.39-1.347.632.161.07.213.197.225.344l-.17-.028-.055.086c-.752-.185-1.288.111-1.346.46h-.561c-.191-.171-.394-.335-.449-.575.328-.015.344.13.673.115.198-.052.348-.128.449-.23-.438-.14-.439-.502-1.122-.517l.056-.105-.168-.067c.182-.125.114-.378.305-.498l-.361-.278c.141.022.28.024.362.042.056.1.1.2.087.303l.055-.086c.372.04.042.438.45.46 0-.076.196-.053.224-.115v-.058c-.343-.23.031-.473-.225-.746.363-.033.564.017.673.114-.113-.172.25-.102.45-.114.149-.146.372-.456.112-.632.47-.074.333-.3.56-.46.254-.178.74-.263.898-.459-.01.012-.246-.155-.224-.23.046-.164.476-.244.336-.402-.495-.297-.21-1.116-.673-1.263-.498-.028-.68.016-.673.115-.102-.1-.209-.2-.561-.172-.463.184-1.044.308-1.234.631.195-.005.349.013.448.058l-.055.105.168.067c-.4.183-1.232-.146-1.683.057-.047-.186-.467-.182-.561-.344.209-.008.375-.038.449-.115-.61-.063-.706.136-1.123.172-.142-.31-.738-.387-1.01-.631-.317.01-.769-.05-.785.114.038.204.31.142.113.345l-.206-.028-.132.086c-.352-.028-.438.082-.672.115-.307-.245-.815-.388-1.122-.632.177-.096.515.075.56-.172-.275-.132-1.14-.293-1.345-.116.244.12-.057.165 0 .345l-.206-.029-.131.086c-.588.154-.801.156-1.46.288-.122.35.35.637.226.804v.057c.073-.019.135-.046.193-.074a.923.923 0 0 1 .255.017v-.058c.497-.062.558.098.898.115.23-.054.444-.117.673-.172v.057h.113c.342.096.174.585.224.976l-.168-.028.158.102c.072.011.154.019.21.043a.666.666 0 0 0 .08.142l.056-.086c.229.032.22.173.449.057.06-.222-.286-.236-.336-.402.408-.04.387-.3.56-.46l.057.087.168-.029c.257.06-.053.41.224.46.679-.113.72-.55 1.57-.574.075.229.28.393.45.574.021.596-1.869.418-1.46 1.034l-.167-.03-.057.087c-.276.008-.54.008-.672-.057-.206-.144-.05-.473-.562-.46.064.32-.68.225-.897.402v.517l-.168.029.055.085c-1.057.111-2.24.329-2.019.92l-.056.085.056.086c-.068.004-.133.01-.112.058.13.106.595.04.448.287-.645-.092-.741.365-1.57.345.12-.156.071-.27-.224-.345-.49-.002-.663.16-1.122.172-.066-.186.076-.267.112-.401-.348-.076-.32.015-.786 0-.352-.05-.28-.316-.672-.345-.315.057.162.153-.113.23h-.561l.056-.105-.168-.068c.214-.151.015-.475-.113-.631-.849.065-.974.44-1.234.919.389.108.33.443.561.631-.26.02-.526.037-.448.23h.56c.065-.254.047-.55.225-.747.042.19.596.117.56.345-.256.287-.195.855-.336 1.034-1.172-.04-1.191.461-2.356.287.002-.136-.193-.17-.112-.345.143-.08.55-.025.561-.172-.157-.015-.128-.126-.224-.172l.168-.03c-.135-.034-.263-.044-.337-.114l-.056.086h-1.122c.15-.301-.522-.435-1.01-.574.392-.163.863-.285 1.122-.517-.494-.077-.772.251-1.121.058.173-.218.116-.553.449-.69-.413-.037-.306-.341-.45-.516l.169.028.168-.028h.561c-.06-.26.45-.23.56-.402.081-.363-.121-.835 0-1.034l.113.03c-.13-.103-.151-.233-.056-.346l-.168.029v-.288c.461-.031.628-.214.561-.516l.056-.058-.225-.057-.056.057c-.365.444-1.084.287-1.795.115-.652.05-.165.68-.786.747l-.167-.029-.057.086c-.191-.208-.173-.524-.897-.46-.072.126.318.183-.112.173-.231-.092-.089-.376-.674-.287a.891.891 0 0 0 .113.919c-.353-.066-.272.09-.449.115.019-.144-.172-.18-.337-.23l.056-.058.056-.057c-.025-.102.114-.288-.224-.23.035.078.16.11.112.23l-.168.029.056.086c-.361.152.08.377.561.287.427.502.536.82.449 1.551h.112l-.055.086.055.086c-.427.186-.258.737.224.804-.293.06-.367.233-.336.46-.413-.116-.801-.022-1.163.044l.04.185v-.058c.465-.028.609.33.225.402.527.242-.038.697.337.977-.493-.07-.839-.193-1.122.057-.512-.182.405-.586-.337-.861-.352-.028-.296.154-.56.172-.006-.306.011-.512.112-.631-.52-.179-.318-.753-.674-.862-.353-.028-.438.082-.673.115-.01-.205-.174-.332-.224-.517.508-.103.47-.487.673-.746-.349.005-.32-.181-.786-.115.09.2-.166.22-.112.402h-.673c-.453.37.081.712.112 1.148-.394.033-.369-.271-.673-.115-.005.08.053.126.112.172-.26-.018-.43.01-.561.058l-.056-.086-.056-.086c-.154-.148-.687-.014-.898 0 .06-.204-.095-.296-.336-.345-.757.276-2.697.21-2.244.92-.418.14-.624.074-1.235.057l.057-.086a1.4 1.4 0 0 1-.449.114l.056.086c-.461-.006-.373.268-.785.288l-.113-.03-.112.03c-.23-.313-.763.119-1.122.114-.025.045-.004.113-.112.115l-.056-.086-.168-.029c-.024-.064-.125-.09-.225-.115.228-.041.322-.243.113-.344-.41.039-.547.217-.896.287l.166.2c-.096-.02-.204-.038-.269-.055-.11-.072-.172-.189.022-.242l-.145-.075c-.067-.31-.569-.398-.562-.747-.233-.263-.339-.592-.785-.746.137-.122.422-.167.449-.345.002-.084-.473-.182 0-.172.303-.199.56.319 1.01.057l.078.098c.09-.04.212-.065.315-.088l-.169-.067c.093-.144.308-.225.337-.402-.797-.167-.704-.788-.786-1.321-.248-.102-.456-.226-1.01-.172-.035-.135-.177-.216-.112-.403-.695-.276-1.444-.249-1.907.116-.074.248.128.355.337.459-.534.331.273 1.046-.562 1.263-.262-.21-.603-.38-.897-.574.605-.087-.124-.363-.112-.517.212-.054.83-.414.224-.516-.218.08-.167.297-.337.402-.37-.043-.734-.388-1.121-.23l-.168-.029.055.086c-.456.147-1.1-.027-1.57-.057-.585.14-1.136.299-1.572.516-.002-.06.17-.384-.448-.402-.214.293-.974.306-1.234.575.012.37.008.732-.225.976l-.13-.086.029.5c.01.044.014.087.008.132l.206-.03v.805c.068.003.132.008.112.057h-.112c.235.04.54.092.562.244a.639.639 0 0 1-.619.245l.057.085c-.113 0-.135.047-.225.058l-.056-.086-.168.029c-.106-.329-.37-.577-.786-.747h.112c-.126-.026-.324-.018-.504-.086l.056.086c.245.28.449.528-.113.747.665.188-.002.72-.112 1.034h.673c.082.271-.16.377-.336.516l-.168-.028-.169.028c-.085-.148-.358-.2-.785-.172-.147-.495-.096-.747-.337-1.206-.374-.1-.498.029-1.01 0-.112-.077-.303-.113-.337-.23l.169-.066-.056-.106c.195.004.349-.013.45-.058.092-.162-.16-.148-.113-.287l.168.03-.056-.087c.636-.169.753.261 1.458.23.315-.248-.044-.569-.336-.69.415-.278.004-.32.449-.516-.3-.221.085-.455-.45-.574-.033-.133.325-.065.337-.173l.168.029c.005-.077.004-.152.038-.23l-.206.029a.69.69 0 0 1-.112-.517c-.766-.106-.308-.838-1.234-.861-.11.327-.2.663-.674.804-.38-.33-1.604-.682-2.468-.403.394.182.2.664.561.863.063 0 .128-.047 0-.059.205-.073.638-.033.786.173.083.234-.362.198-.224.46.676-.06 1.023.05.897.401.357.008.493.13.898.115.176-.158.005-.495.336-.574.315.106.623.218 1.01.287-.137.083-.428.087-.56.172-.15.218.501.59-.226.574l-.13-.086-.206.03c-.006-.074-.144-.08-.112-.173-.644-.07-.71.463-.336.574l-.057.03-.056.027c-.044.27-.068.191-.112.46l-.169.067.057.106c-.232.034-.425.089-.336.286.474-.013.72.09 1.01.172-.178.102-.602.076-.786.173-.028.244.293.31.224.574-.214.23-.77-.057-.898.172.014.166.479.1.45.288-.118.131-.072.347-.226.46-.292.047-.614-.174-.785 0-.003.135.193.168.113.343L84.388 48l-.056.086c-.16.014-.19.095-.337.115l-.055-.086-.169.028c-.39-.148.748-.731 0-1.09l.169-.03c-.106-.058-.287-.15-.337-.229l-.056.086c-.212.013-.248-.064-.449-.057-.077-.154.232-.11.337-.172l.13.086c.057-.068.107-.128.15-.173l-.168.03c-.409-.368-1.132.048-1.347.286-.031-.233-.192-.399-.224-.632l.169.029.055-.086c.242.13.397-.04.337-.23l.205.03.132-.087c.202.13.566.136.897.057-.177-.272-.228-.352 0-.632-.652.066-.914-.067-.786-.401.03-.12.494-.016.562-.115-.238-.057.24-.362-.112-.46-.137.007-.266.018-.225.115l-.205-.029-.131.086c-.364-.12-.002-.61-.786-.516.013.543-.833.646-1.01 1.091l-.168-.029-.169.03v-.059c-.356-.048-.425.05-.56.115-.127-.585-.62-.984-1.01-1.435-.16.014-.19.094-.337.114l-.056-.086-.168.03c-.215-.216-.362-.466-.673-.633-.366-.014-.54.069-.561.23l-.112-.029.112.144v-.057c.554.353 1.014 1.112.449 1.55l-.169-.028c.18.14.035.3.067.45-.11.033-.26.032-.403.038l-.056.057c.025.108-.127.127-.113.23-.26-.018-.483-.123-.56.057.226.204.152.202.224.46-.403.1-.72.243-1.234.286-.465-.341.023-.665-.225-.975.453-.056.516-.31.785-.46-.144-.098-.232-.226-.56-.23.036-.368-.254-.615.112-.86l.169-.068c-.377-.103-.815-.299-.603-.537.062-.017.17-.035.266-.057l-.155-.131c-.079-.047-.161-.092-.182-.156l-.168.029c-.172-.104-.405-.176-.337-.402.07-.098.339-.094.449-.172-.208-.085-.168-.298-.562-.287-.43.136-.763.173-1.009.287.09.007.34.19.112.172-.363-.2-.775.06-1.01.115-.353.027-.254-.177-.672-.115v.288l-.206-.03-.131.087c-.348-.104-.06-.176-.112-.403-.213.013-.248-.064-.45-.057-.3.094-.496.244-.785.344v.058l-.205-.028-.131.086c-.39-.316-1.466-.595-1.908-.116.407.079.554.29.786.46-.495-.075-.46.004-.786.115-.176-.179-.311-.377-.673-.46-.344.093-.451.305-.898.345l-.168-.029c.132.08.14.172.161.265l-.109-.179c-.38-.047-.52.007-1.006-.057-.126.108-.132.277-.56.23l-.057-.086c-.102.148-.414.156-.673.143l.168.058c-.006.073-.143.079-.112.172-.225-.153-.549-.255-.897-.345l.056-.105-.169-.067c-.081-.176.194-.169.113-.344-.46-.225-.69-.567-1.46-.632-.077.285-.848.216-.784.575-.448.017-.83.004-1.01-.116.002-.191.173-.375 0-.574.387-.158.375-.162 1.01-.173.09-.106.144-.231.336-.286-.212.012-.248-.065-.449-.058-.234.344-1.718.274-1.458.69-.795-.024-.839.336-1.235.517-.668-.106-.913.221-1.234.114.433-.316.06-.604-.336-.804-.26-.019-.431.01-.561.057-.431-.162-.33-.597-1.234-.516-.133.18-.127.433-.337.574l-.056-.086-.168.028c-.282-.047-.601-.075-.561-.287l.056-.086c-.137-.067-.223-.154-.337-.23l-.056.087c-.341-.094-.553-.254-1.122-.23.187.765-.894 1.298-1.907 1.09.034.077.153.11.114.224l.727.093c-.294-.02-.743.062-.897-.115l-.057.086c-.457-.148-.2-.663-.785-.746-.267.035-.184.25-.673.172.08-.49-.702-.087-1.459-.115-.315-.012-.376-.28-.673-.057.089.127.393.144.561.23v.401l-.168.029.056.086c-.64-.227-1.344-.422-1.683-.804-.726-.136-1.028.226-1.908.058-.115-.42-.617-.642-1.234-.804-.37.021-.226.305-.673.287-.547.069-.376-.228-.785-.23-.31.129-.497.32-.561.574l-.206-.028c.02.037.029.076.037.114l.169-.029c.196.053.39.108.336.288l-.168-.03c.133.091.202.14.28.202v-.058c.32.22.906.046 1.46.058-.049-.11-.322-.104-.226-.287.358-.085.816-.12 1.123-.23.09.108.187.21.224.345-.15.095-.636.019-.786.114l-.167.03a.439.439 0 0 1-.038.114l.205-.029c.396.181 1.265.119 1.571.345l-.056.086.169.029c.142.195.505.276.56.517-.175.006-.389-.008-.336.115.264-.002.33.098.673.057l-.055.086.168.029c-.269.073-.586.122-.45.402l-.167.029.449.114-.056-.086c.232.034.736-.071.785.058-.321.17.256.465-.45.46l-.13-.087c-.228.243-.816.19-1.144.041l.04.103c-.334-.118-1.055-.19-1.234.057l-.112-.028-.112.028c-.532-.187-.811-.504-1.01-.861V44c-.396.044-.677-.064-.985-.144l-.53-.078-.056.057c-.11.411.646.655 1.01 1.092l-.168.066.056.106h-.449c-.316.233.087.506 0 .804l-.168-.029-.056.086c-.58-.048-.755.112-1.01.23l-.168.029-.17.029c-.235-.148-.383-.34-.56-.517l.169-.029-.057-.086h.225c.146-.343-.211-.428-.336-.632.137-.083.428-.087.56-.172l.17-.029-.057-.086h.112c.198-.119.347-.05.449-.114-.166-.03-.283-.085-.45-.115 0-.249.207-.322-.111-.46.2-.032.465-.03.56-.115-.155-.035-.016-.22-.224-.23h-1.01l-.056-.085-.168.028c-.165-.183 1.018-.166.785-.574.293.016.483-.021.449-.172-.25-.025-.4-.102-.45-.23.207-.24.79-.286 1.011-.517-.008-.474-1-.444-.897-.976-.867-.15-1.163-.592-1.235-1.149l.057-.058c-.15-.004-.3-.002-.45-.028l.056.086c-.692.197.519.621.113.862h-.898c.18.487-1.59.175-1.009.689-.41-.02-.42-.245-.786-.287-.445.116-.552.406-1.01.516.35.202-.493.282-.224.632-.132.008-.318-.01-.336.058.314.88-1.979.695-1.796 1.32h.449c.61.475-.113.67-.224 1.206-.343-.041-.33.1-.674.058-.197-.189.194-.493.45-.632-.252-.58-1.408-.436-2.47-.517.015-.142.018-.277-.111-.344l.168-.029-.168-.029c-.142-.138-.426-.203-.45-.402.271-.052.42-.167.562-.287.066.12.236.186.337.287l-.169.029.337.029-.056-.058c.192-.073.44-.118.448-.287-.207-.23-.44-.226-1.01-.172-.089-.107-.186-.21-.224-.344.315-.031.583-.085.898-.116.266-.254.627-.79-.224-.861-.525.055-.935.147-1.235.172-.163-.107-.165-.298-.449-.344-1.237-.013-1.404-.716-2.244-.861-.291-.05-.204.104-.538.113.052-.012-.627-.097-.696-.113-.327-.083-.364-.282-.337-.46.3-.06.582-.426.45-.517-1.084-.075-1.691.092-2.132.345-.274-.09-.697-.103-.898-.23-.188-.512.373-.86-.561-1.092-.323.008-.734-.03-.898.059-.502-.188-.693-.56-.449-.977.398-.064.829-.112 1.01-.287.013-.523-.347-.856-1.234-.92a1.893 1.893 0 0 1-.816-.644v-5.609H199.56v3.247c-.381.042-.868.028-.896.25.582.167-.01.111 0 .403.391-.059.66-.013.896.046" style="fill:#040606;fill-opacity:1;fill-rule:nonzero;stroke:none;stroke-width:.0352778" transform="translate(-18.056 -29.945)"/></svg>